<svg width="136" height="24" viewBox="0 0 136 24" fill="none" xmlns="http://www.w3.org/2000/svg">
<path opacity="0.6" d="M14 16C14 17.77 13.23 19.37 12 20.46C10.94 21.42 9.54 22 8 22C4.69 22 2 19.31 2 16C2 13.24 3.88 10.9 6.42 10.21C7.11 11.95 8.59 13.29 10.42 13.79C10.92 13.93 11.45 14 12 14C12.55 14 13.08 13.93 13.58 13.79C13.85 14.47 14 15.22 14 16Z" fill="#5030E5"/>
<path d="M18 8C18 8.78 17.85 9.53 17.58 10.21C16.89 11.95 15.41 13.29 13.58 13.79C13.08 13.93 12.55 14 12 14C11.45 14 10.92 13.93 10.42 13.79C8.59 13.29 7.11 11.95 6.42 10.21C6.15 9.53 6 8.78 6 8C6 4.69 8.69 2 12 2C15.31 2 18 4.69 18 8Z" fill="#5030E5"/>
<path opacity="0.4" d="M22 16C22 19.31 19.31 22 16 22C14.46 22 13.06 21.42 12 20.46C13.23 19.37 14 17.77 14 16C14 15.22 13.85 14.47 13.58 13.79C15.41 13.29 16.89 11.95 17.58 10.21C20.12 10.9 22 13.24 22 16Z" fill="#5030E5"/>
<path d="M32.9 19L39.2 5H41.76L48.08 19H45.36L39.94 6.38H40.98L35.58 19H32.9ZM35.8 15.76L36.5 13.72H44.06L44.76 15.76H35.8ZM49.8605 19V5H56.4205C58.1005 5 59.3805 5.33333 60.2605 6C61.1405 6.65333 61.5805 7.53333 61.5805 8.64C61.5805 9.38667 61.4071 10.0267 61.0605 10.56C60.7138 11.08 60.2471 11.4867 59.6605 11.78C59.0871 12.06 58.4605 12.2 57.7805 12.2L58.1405 11.48C58.9271 11.48 59.6338 11.6267 60.2605 11.92C60.8871 12.2 61.3805 12.6133 61.7405 13.16C62.1138 13.7067 62.3005 14.3867 62.3005 15.2C62.3005 16.4 61.8405 17.3333 60.9205 18C60.0005 18.6667 58.6338 19 56.8205 19H49.8605ZM52.4605 16.96H56.6605C57.6338 16.96 58.3805 16.8 58.9005 16.48C59.4205 16.16 59.6805 15.6467 59.6805 14.94C59.6805 14.2467 59.4205 13.74 58.9005 13.42C58.3805 13.0867 57.6338 12.92 56.6605 12.92H52.2605V10.9H56.1405C57.0471 10.9 57.7405 10.74 58.2205 10.42C58.7138 10.1 58.9605 9.62 58.9605 8.98C58.9605 8.32667 58.7138 7.84 58.2205 7.52C57.7405 7.2 57.0471 7.04 56.1405 7.04H52.4605V16.96ZM71.5553 19.2C70.4886 19.2 69.4953 19.0267 68.5753 18.68C67.6686 18.32 66.8753 17.82 66.1953 17.18C65.5286 16.5267 65.0086 15.76 64.6353 14.88C64.262 14 64.0753 13.04 64.0753 12C64.0753 10.96 64.262 10 64.6353 9.12C65.0086 8.24 65.5353 7.48 66.2153 6.84C66.8953 6.18667 67.6886 5.68667 68.5953 5.34C69.502 4.98 70.4953 4.8 71.5753 4.8C72.722 4.8 73.7686 5 74.7153 5.4C75.662 5.78667 76.462 6.36667 77.1153 7.14L75.4353 8.72C74.9286 8.17333 74.362 7.76667 73.7353 7.5C73.1086 7.22 72.4286 7.08 71.6953 7.08C70.962 7.08 70.2886 7.2 69.6753 7.44C69.0753 7.68 68.5486 8.02 68.0953 8.46C67.6553 8.9 67.3086 9.42 67.0553 10.02C66.8153 10.62 66.6953 11.28 66.6953 12C66.6953 12.72 66.8153 13.38 67.0553 13.98C67.3086 14.58 67.6553 15.1 68.0953 15.54C68.5486 15.98 69.0753 16.32 69.6753 16.56C70.2886 16.8 70.962 16.92 71.6953 16.92C72.4286 16.92 73.1086 16.7867 73.7353 16.52C74.362 16.24 74.9286 15.82 75.4353 15.26L77.1153 16.86C76.462 17.62 75.662 18.2 74.7153 18.6C73.7686 19 72.7153 19.2 71.5553 19.2ZM83.1539 19L89.4539 5H92.0139L98.3339 19H95.6139L90.1939 6.38H91.2339L85.8339 19H83.1539ZM86.0539 15.76L86.7539 13.72H94.3139L95.0139 15.76H86.0539ZM105.794 19.14C104.928 19.14 104.134 18.94 103.414 18.54C102.708 18.14 102.141 17.54 101.714 16.74C101.301 15.9267 101.094 14.9 101.094 13.66C101.094 12.4067 101.294 11.38 101.694 10.58C102.108 9.78 102.668 9.18667 103.374 8.8C104.081 8.4 104.888 8.2 105.794 8.2C106.848 8.2 107.774 8.42667 108.574 8.88C109.388 9.33333 110.028 9.96667 110.494 10.78C110.974 11.5933 111.214 12.5533 111.214 13.66C111.214 14.7667 110.974 15.7333 110.494 16.56C110.028 17.3733 109.388 18.0067 108.574 18.46C107.774 18.9133 106.848 19.14 105.794 19.14ZM99.8744 22.88V8.32H102.254V10.84L102.174 13.68L102.374 16.52V22.88H99.8744ZM105.514 17C106.114 17 106.648 16.8667 107.114 16.6C107.594 16.3333 107.974 15.9467 108.254 15.44C108.534 14.9333 108.674 14.34 108.674 13.66C108.674 12.9667 108.534 12.3733 108.254 11.88C107.974 11.3733 107.594 10.9867 107.114 10.72C106.648 10.4533 106.114 10.32 105.514 10.32C104.914 10.32 104.374 10.4533 103.894 10.72C103.414 10.9867 103.034 11.3733 102.754 11.88C102.474 12.3733 102.334 12.9667 102.334 13.66C102.334 14.34 102.474 14.9333 102.754 15.44C103.034 15.9467 103.414 16.3333 103.894 16.6C104.374 16.8667 104.914 17 105.514 17ZM119.505 19.14C118.639 19.14 117.845 18.94 117.125 18.54C116.419 18.14 115.852 17.54 115.425 16.74C115.012 15.9267 114.805 14.9 114.805 13.66C114.805 12.4067 115.005 11.38 115.405 10.58C115.819 9.78 116.379 9.18667 117.085 8.8C117.792 8.4 118.599 8.2 119.505 8.2C120.559 8.2 121.485 8.42667 122.285 8.88C123.099 9.33333 123.739 9.96667 124.205 10.78C124.685 11.5933 124.925 12.5533 124.925 13.66C124.925 14.7667 124.685 15.7333 124.205 16.56C123.739 17.3733 123.099 18.0067 122.285 18.46C121.485 18.9133 120.559 19.14 119.505 19.14ZM113.585 22.88V8.32H115.965V10.84L115.885 13.68L116.085 16.52V22.88H113.585ZM119.225 17C119.825 17 120.359 16.8667 120.825 16.6C121.305 16.3333 121.685 15.9467 121.965 15.44C122.245 14.9333 122.385 14.34 122.385 13.66C122.385 12.9667 122.245 12.3733 121.965 11.88C121.685 11.3733 121.305 10.9867 120.825 10.72C120.359 10.4533 119.825 10.32 119.225 10.32C118.625 10.32 118.085 10.4533 117.605 10.72C117.125 10.9867 116.745 11.3733 116.465 11.88C116.185 12.3733 116.045 12.9667 116.045 13.66C116.045 14.34 116.185 14.9333 116.465 15.44C116.745 15.9467 117.125 16.3333 117.605 16.6C118.085 16.8667 118.625 17 119.225 17ZM130.596 19.14C129.703 19.14 128.843 19.0267 128.016 18.8C127.203 18.56 126.556 18.2733 126.076 17.94L127.036 16.04C127.516 16.3467 128.09 16.6 128.756 16.8C129.423 17 130.09 17.1 130.756 17.1C131.543 17.1 132.11 16.9933 132.456 16.78C132.816 16.5667 132.996 16.28 132.996 15.92C132.996 15.6267 132.876 15.4067 132.636 15.26C132.396 15.1 132.083 14.98 131.696 14.9C131.31 14.82 130.876 14.7467 130.396 14.68C129.93 14.6133 129.456 14.5267 128.976 14.42C128.51 14.3 128.083 14.1333 127.696 13.92C127.31 13.6933 126.996 13.3933 126.756 13.02C126.516 12.6467 126.396 12.1533 126.396 11.54C126.396 10.86 126.59 10.2733 126.976 9.78C127.363 9.27333 127.903 8.88667 128.596 8.62C129.303 8.34 130.136 8.2 131.096 8.2C131.816 8.2 132.543 8.28 133.276 8.44C134.01 8.6 134.616 8.82667 135.096 9.12L134.136 11.02C133.63 10.7133 133.116 10.5067 132.596 10.4C132.09 10.28 131.583 10.22 131.076 10.22C130.316 10.22 129.75 10.3333 129.376 10.56C129.016 10.7867 128.836 11.0733 128.836 11.42C128.836 11.74 128.956 11.98 129.196 12.14C129.436 12.3 129.75 12.4267 130.136 12.52C130.523 12.6133 130.95 12.6933 131.416 12.76C131.896 12.8133 132.37 12.9 132.836 13.02C133.303 13.14 133.73 13.3067 134.116 13.52C134.516 13.72 134.836 14.0067 135.076 14.38C135.316 14.7533 135.436 15.24 135.436 15.84C135.436 16.5067 135.236 17.0867 134.836 17.58C134.45 18.0733 133.896 18.46 133.176 18.74C132.456 19.0067 131.596 19.14 130.596 19.14Z" fill="#0D062D"/>
</svg>
