<svg width="1440" height="104" viewBox="0 0 1440 104" fill="none" xmlns="http://www.w3.org/2000/svg">
<path opacity="0.8" fill-rule="evenodd" clip-rule="evenodd" d="M0 0L59.625 3.90751C120.375 7.81503 239.625 15.6301 360 28.8555C480.375 42.3815 599.625 61.6185 720 65.526C840.375 69.4335 959.625 57.711 1080 54.104C1200.38 50.1965 1319.62 54.104 1380.38 55.9075L1440 57.711V104H1380.38C1319.62 104 1200.38 104 1080 104C959.625 104 840.375 104 720 104C599.625 104 480.375 104 360 104C239.625 104 120.375 104 59.625 104H0V0Z" fill="#5030E5"/>
<path fill-rule="evenodd" clip-rule="evenodd" d="M0 41.6L48 49.92C96 58.24 192 74.88 288 70.72C384 66.56 480 41.6 576 24.96C672 8.32 768 0 864 0C960 0 1056 8.32 1152 22.88C1248 37.44 1344 58.24 1392 68.64L1440 79.04V104H1392C1344 104 1248 104 1152 104C1056 104 960 104 864 104C768 104 672 104 576 104C480 104 384 104 288 104C192 104 96 104 48 104H0V41.6Z" fill="#5030E5"/>
</svg>
