<svg xmlns="http://www.w3.org/2000/svg" xmlns:xlink="http://www.w3.org/1999/xlink">

    <symbol id="close-circle" viewBox="0 0 24 24">
        <path d="M3.35288 15.0496L4.08306 14.8783L3.35288 15.0496ZM3.35288 8.95043L4.08306 9.12171L3.35288 8.95043ZM20.6471 8.95044L19.9169 9.12171L20.6471 8.95044ZM20.6471 15.0496L19.9169 14.8783L20.6471 15.0496ZM15.0496 20.6471L15.2208 21.3773L15.0496 20.6471ZM8.95044 20.6471L9.12171 19.9169L8.95044 20.6471ZM8.95043 3.35288L9.12171 4.08306L8.95043 3.35288ZM15.0496 3.35288L15.2208 2.6227L15.0496 3.35288ZM4.08306 14.8783C3.63898 12.9851 3.63898 11.0149 4.08306 9.12171L2.6227 8.77915C2.12577 10.8976 2.12577 13.1024 2.6227 15.2209L4.08306 14.8783ZM19.9169 9.12171C20.361 11.0149 20.361 12.9851 19.9169 14.8783L21.3773 15.2208C21.8742 13.1024 21.8742 10.8976 21.3773 8.77916L19.9169 9.12171ZM14.8783 19.9169C12.9851 20.361 11.0149 20.361 9.12171 19.9169L8.77916 21.3773C10.8976 21.8742 13.1024 21.8742 15.2208 21.3773L14.8783 19.9169ZM9.12171 4.08306C11.0149 3.63898 12.9851 3.63898 14.8783 4.08306L15.2208 2.6227C13.1024 2.12577 10.8976 2.12577 8.77916 2.6227L9.12171 4.08306ZM9.12171 19.9169C6.62161 19.3305 4.6695 17.3784 4.08306 14.8783L2.6227 15.2209C3.33924 18.2756 5.72442 20.6608 8.77916 21.3773L9.12171 19.9169ZM15.2208 21.3773C18.2756 20.6608 20.6608 18.2756 21.3773 15.2208L19.9169 14.8783C19.3305 17.3784 17.3784 19.3305 14.8783 19.9169L15.2208 21.3773ZM14.8783 4.08306C17.3784 4.6695 19.3305 6.62161 19.9169 9.12171L21.3773 8.77916C20.6608 5.72441 18.2756 3.33924 15.2208 2.6227L14.8783 4.08306ZM8.77916 2.6227C5.72441 3.33924 3.33924 5.72441 2.6227 8.77915L4.08306 9.12171C4.6695 6.6216 6.62161 4.6695 9.12171 4.08306L8.77916 2.6227Z"/>
        <path d="M14.298 10.7626C14.5909 10.4697 14.5909 9.9948 14.298 9.70191C14.0051 9.40902 13.5303 9.40902 13.2374 9.70191L14.298 10.7626ZM9.70185 13.2374C9.40895 13.5303 9.40895 14.0052 9.70185 14.2981C9.99474 14.591 10.4696 14.591 10.7625 14.2981L9.70185 13.2374ZM13.2374 14.2981C13.5303 14.591 14.0051 14.591 14.298 14.2981C14.5909 14.0052 14.5909 13.5303 14.298 13.2374L13.2374 14.2981ZM10.7625 9.70191C10.4696 9.40902 9.99474 9.40902 9.70185 9.70191C9.40895 9.9948 9.40895 10.4697 9.70185 10.7626L10.7625 9.70191ZM13.2374 9.70191L9.70185 13.2374L10.7625 14.2981L14.298 10.7626L13.2374 9.70191ZM14.298 13.2374L10.7625 9.70191L9.70185 10.7626L13.2374 14.2981L14.298 13.2374Z"/>
    </symbol>

    <symbol id="close" viewBox="0 0 24 24" fill="none">
        <path d="M18 18L6 6" stroke-width="2" stroke-linecap="round" stroke-linejoin="round"/>
        <path d="M18 6L6 18" stroke-width="2" stroke-linecap="round" stroke-linejoin="round"/>
    </symbol>

    <symbol id="discovery" viewBox="0 0 24 24">
        <path d="M3.35288 15.0496L2.6227 15.2209L3.35288 15.0496ZM3.35288 8.95043L2.6227 8.77915L3.35288 8.95043ZM20.6471 8.95044L19.9169 9.12171L20.6471 8.95044ZM20.6471 15.0496L19.9169 14.8783L20.6471 15.0496ZM15.0496 20.6471L14.8783 19.9169L15.0496 20.6471ZM8.95044 20.6471L9.12171 19.9169L8.95044 20.6471ZM8.95043 3.35288L9.12171 4.08306L8.95043 3.35288ZM15.0496 3.35288L14.8783 4.08306L15.0496 3.35288ZM4.08306 14.8783C3.63898 12.9851 3.63898 11.0149 4.08306 9.12171L2.6227 8.77915C2.12577 10.8976 2.12577 13.1024 2.6227 15.2209L4.08306 14.8783ZM19.9169 9.12171C20.361 11.0149 20.361 12.9851 19.9169 14.8783L21.3773 15.2208C21.8742 13.1024 21.8742 10.8976 21.3773 8.77916L19.9169 9.12171ZM14.8783 19.9169C12.9851 20.361 11.0149 20.361 9.12171 19.9169L8.77916 21.3773C10.8976 21.8742 13.1024 21.8742 15.2208 21.3773L14.8783 19.9169ZM9.12171 4.08306C11.0149 3.63898 12.9851 3.63898 14.8783 4.08306L15.2208 2.6227C13.1024 2.12577 10.8976 2.12577 8.77916 2.6227L9.12171 4.08306ZM9.12171 19.9169C6.62161 19.3305 4.6695 17.3784 4.08306 14.8783L2.6227 15.2209C3.33924 18.2756 5.72441 20.6608 8.77916 21.3773L9.12171 19.9169ZM15.2208 21.3773C18.2756 20.6608 20.6608 18.2756 21.3773 15.2208L19.9169 14.8783C19.3305 17.3784 17.3784 19.3305 14.8783 19.9169L15.2208 21.3773ZM14.8783 4.08306C17.3784 4.6695 19.3305 6.62161 19.9169 9.12171L21.3773 8.77916C20.6608 5.72441 18.2756 3.33924 15.2208 2.6227L14.8783 4.08306ZM8.77916 2.6227C5.72441 3.33924 3.33924 5.72441 2.6227 8.77915L4.08306 9.12171C4.6695 6.6216 6.62161 4.6695 9.12171 4.08306L8.77916 2.6227Z"/>
        <path d="M10.6666 14.6334L10.3881 13.9371L10.6666 14.6334ZM9.36673 13.3336L10.0631 13.6121L9.36673 13.3336ZM13.8185 12.7042L13.1221 12.4256L13.8185 12.7042ZM12.7043 13.8183L12.9829 14.5147L12.7043 13.8183ZM11.296 10.1817L11.0174 9.4853V9.4853L11.296 10.1817ZM10.1818 11.2958L9.48546 11.0173L10.1818 11.2958ZM13.3337 9.36657L13.6122 10.0629L13.3337 9.36657ZM14.6336 10.6664L15.3299 10.945L14.6336 10.6664ZM13.0552 8.67022L11.0174 9.4853L11.5745 10.878L13.6122 10.0629L13.0552 8.67022ZM13.9372 10.3879L13.1221 12.4256L14.5148 12.9827L15.3299 10.945L13.9372 10.3879ZM12.4258 13.122L10.3881 13.9371L10.9451 15.3298L12.9829 14.5147L12.4258 13.122ZM10.0631 13.6121L10.8782 11.5744L9.48546 11.0173L8.67037 13.055L10.0631 13.6121ZM10.3881 13.9371C10.184 14.0187 9.98145 13.8162 10.0631 13.6121L8.67037 13.055C8.09895 14.4836 9.51659 15.9012 10.9451 15.3298L10.3881 13.9371ZM13.1221 12.4256C12.9951 12.7432 12.7434 12.9949 12.4258 13.122L12.9829 14.5147C13.6816 14.2352 14.2353 13.6815 14.5148 12.9827L13.1221 12.4256ZM11.0174 9.4853C10.3187 9.76482 9.76497 10.3185 9.48546 11.0173L10.8782 11.5744C11.0052 11.2567 11.2569 11.0051 11.5745 10.878L11.0174 9.4853ZM13.6122 10.0629C13.8163 9.9813 14.0188 10.1838 13.9372 10.3879L15.3299 10.945C15.9013 9.51644 14.4837 8.0988 13.0552 8.67022L13.6122 10.0629Z"/>
    </symbol>

    <symbol id="grid" viewBox="0 0 24 24">
        <path d="M3.35288 15.0496L2.6227 15.2209L3.35288 15.0496ZM3.35288 8.95043L2.6227 8.77915L3.35288 8.95043ZM20.6471 8.95044L19.9169 9.12171L20.6471 8.95044ZM20.6471 15.0496L19.9169 14.8783L20.6471 15.0496ZM15.0496 20.6471L14.8783 19.9169L15.0496 20.6471ZM8.95044 20.6471L9.12171 19.9169L8.95044 20.6471ZM8.95043 3.35288L9.12171 4.08306L8.95043 3.35288ZM15.0496 3.35288L14.8783 4.08306L15.0496 3.35288ZM3.67782 9.62918H12V8.12918H3.67782V9.62918ZM12 15.8708H20.3222V14.3708H12V15.8708ZM11.25 3.67782L11.25 20.3222H12.75L12.75 3.67782L11.25 3.67782ZM4.08306 14.8783C3.63898 12.9851 3.63898 11.0149 4.08306 9.12171L2.6227 8.77915C2.12577 10.8976 2.12577 13.1024 2.6227 15.2209L4.08306 14.8783ZM19.9169 9.12171C20.361 11.0149 20.361 12.9851 19.9169 14.8783L21.3773 15.2208C21.8742 13.1024 21.8742 10.8976 21.3773 8.77916L19.9169 9.12171ZM14.8783 19.9169C12.9851 20.361 11.0149 20.361 9.12171 19.9169L8.77916 21.3773C10.8976 21.8742 13.1024 21.8742 15.2208 21.3773L14.8783 19.9169ZM9.12171 4.08306C11.0149 3.63898 12.9851 3.63898 14.8783 4.08306L15.2208 2.6227C13.1024 2.12577 10.8976 2.12577 8.77916 2.6227L9.12171 4.08306ZM9.12171 19.9169C6.62161 19.3305 4.6695 17.3784 4.08306 14.8783L2.6227 15.2209C3.33924 18.2756 5.72441 20.6608 8.77916 21.3773L9.12171 19.9169ZM15.2208 21.3773C18.2756 20.6608 20.6608 18.2756 21.3773 15.2208L19.9169 14.8783C19.3305 17.3784 17.3784 19.3305 14.8783 19.9169L15.2208 21.3773ZM14.8783 4.08306C17.3784 4.6695 19.3305 6.62161 19.9169 9.12171L21.3773 8.77916C20.6608 5.72441 18.2756 3.33924 15.2208 2.6227L14.8783 4.08306ZM8.77916 2.6227C5.72441 3.33924 3.33924 5.72441 2.6227 8.77915L4.08306 9.12171C4.6695 6.6216 6.62161 4.6695 9.12171 4.08306L8.77916 2.6227Z"/>
    </symbol>

    <symbol id="menu" viewBox="0 0 24 24">
        <path d="M4.02719 7.59493C3.85826 6.87475 3.85826 6.12525 4.02719 5.40507L2.56683 5.06252C2.34505 6.00801 2.34505 6.99199 2.56683 7.93748L4.02719 7.59493ZM8.97281 5.40508C9.14174 6.12525 9.14174 6.87475 8.97281 7.59492L10.4332 7.93748C10.655 6.99199 10.655 6.00801 10.4332 5.06252L8.97281 5.40508ZM7.59492 8.97281C6.87475 9.14174 6.12525 9.14174 5.40508 8.97281L5.06252 10.4332C6.00801 10.655 6.99199 10.655 7.93748 10.4332L7.59492 8.97281ZM5.40508 4.02719C6.12525 3.85826 6.87475 3.85826 7.59493 4.02719L7.93748 2.56683C6.99199 2.34505 6.00801 2.34505 5.06252 2.56683L5.40508 4.02719ZM5.40508 8.97281C4.72139 8.81244 4.18756 8.27861 4.02719 7.59493L2.56683 7.93748C2.8573 9.17581 3.8242 10.1427 5.06252 10.4332L5.40508 8.97281ZM7.93748 10.4332C9.17581 10.1427 10.1427 9.1758 10.4332 7.93748L8.97281 7.59492C8.81244 8.27861 8.27861 8.81244 7.59492 8.97281L7.93748 10.4332ZM7.59493 4.02719C8.27861 4.18756 8.81244 4.72139 8.97281 5.40508L10.4332 5.06252C10.1427 3.8242 9.17581 2.8573 7.93748 2.56683L7.59493 4.02719ZM5.06252 2.56683C3.8242 2.8573 2.8573 3.82419 2.56683 5.06252L4.02719 5.40507C4.18756 4.72139 4.72139 4.18756 5.40508 4.02719L5.06252 2.56683Z"/>
        <path d="M4.02719 18.5949C3.85826 17.8747 3.85826 17.1253 4.02719 16.4051L2.56683 16.0625C2.34505 17.008 2.34505 17.992 2.56683 18.9375L4.02719 18.5949ZM8.97281 16.4051C9.14174 17.1253 9.14174 17.8747 8.97281 18.5949L10.4332 18.9375C10.655 17.992 10.655 17.008 10.4332 16.0625L8.97281 16.4051ZM7.59492 19.9728C6.87475 20.1417 6.12525 20.1417 5.40508 19.9728L5.06252 21.4332C6.00801 21.655 6.99199 21.655 7.93748 21.4332L7.59492 19.9728ZM5.40508 15.0272C6.12525 14.8583 6.87475 14.8583 7.59493 15.0272L7.93748 13.5668C6.99199 13.345 6.00801 13.345 5.06252 13.5668L5.40508 15.0272ZM5.40508 19.9728C4.72139 19.8124 4.18756 19.2786 4.02719 18.5949L2.56683 18.9375C2.8573 20.1758 3.8242 21.1427 5.06252 21.4332L5.40508 19.9728ZM7.93748 21.4332C9.17581 21.1427 10.1427 20.1758 10.4332 18.9375L8.97281 18.5949C8.81244 19.2786 8.27861 19.8124 7.59492 19.9728L7.93748 21.4332ZM7.59493 15.0272C8.27861 15.1876 8.81244 15.7214 8.97281 16.4051L10.4332 16.0625C10.1427 14.8242 9.17581 13.8573 7.93748 13.5668L7.59493 15.0272ZM5.06252 13.5668C3.8242 13.8573 2.8573 14.8242 2.56683 16.0625L4.02719 16.4051C4.18756 15.7214 4.72139 15.1876 5.40508 15.0272L5.06252 13.5668Z"/>
        <path d="M15.0272 7.59493C14.8583 6.87475 14.8583 6.12525 15.0272 5.40507L13.5668 5.06252C13.345 6.00801 13.345 6.99199 13.5668 7.93748L15.0272 7.59493ZM19.9728 5.40508C20.1417 6.12525 20.1417 6.87475 19.9728 7.59492L21.4332 7.93748C21.655 6.99199 21.655 6.00801 21.4332 5.06252L19.9728 5.40508ZM18.5949 8.97281C17.8747 9.14174 17.1253 9.14174 16.4051 8.97281L16.0625 10.4332C17.008 10.655 17.992 10.655 18.9375 10.4332L18.5949 8.97281ZM16.4051 4.02719C17.1253 3.85826 17.8747 3.85826 18.5949 4.02719L18.9375 2.56683C17.992 2.34505 17.008 2.34505 16.0625 2.56683L16.4051 4.02719ZM16.4051 8.97281C15.7214 8.81244 15.1876 8.27861 15.0272 7.59493L13.5668 7.93748C13.8573 9.17581 14.8242 10.1427 16.0625 10.4332L16.4051 8.97281ZM18.9375 10.4332C20.1758 10.1427 21.1427 9.1758 21.4332 7.93748L19.9728 7.59492C19.8124 8.27861 19.2786 8.81244 18.5949 8.97281L18.9375 10.4332ZM18.5949 4.02719C19.2786 4.18756 19.8124 4.72139 19.9728 5.40508L21.4332 5.06252C21.1427 3.8242 20.1758 2.8573 18.9375 2.56683L18.5949 4.02719ZM16.0625 2.56683C14.8242 2.8573 13.8573 3.82419 13.5668 5.06252L15.0272 5.40507C15.1876 4.72139 15.7214 4.18756 16.4051 4.02719L16.0625 2.56683Z"/>
        <path d="M15.0272 18.5949C14.8583 17.8747 14.8583 17.1253 15.0272 16.4051L13.5668 16.0625C13.345 17.008 13.345 17.992 13.5668 18.9375L15.0272 18.5949ZM19.9728 16.4051C20.1417 17.1253 20.1417 17.8747 19.9728 18.5949L21.4332 18.9375C21.655 17.992 21.655 17.008 21.4332 16.0625L19.9728 16.4051ZM18.5949 19.9728C17.8747 20.1417 17.1253 20.1417 16.4051 19.9728L16.0625 21.4332C17.008 21.655 17.992 21.655 18.9375 21.4332L18.5949 19.9728ZM16.4051 15.0272C17.1253 14.8583 17.8747 14.8583 18.5949 15.0272L18.9375 13.5668C17.992 13.345 17.008 13.345 16.0625 13.5668L16.4051 15.0272ZM16.4051 19.9728C15.7214 19.8124 15.1876 19.2786 15.0272 18.5949L13.5668 18.9375C13.8573 20.1758 14.8242 21.1427 16.0625 21.4332L16.4051 19.9728ZM18.9375 21.4332C20.1758 21.1427 21.1427 20.1758 21.4332 18.9375L19.9728 18.5949C19.8124 19.2786 19.2786 19.8124 18.5949 19.9728L18.9375 21.4332ZM18.5949 15.0272C19.2786 15.1876 19.8124 15.7214 19.9728 16.4051L21.4332 16.0625C21.1427 14.8242 20.1758 13.8573 18.9375 13.5668L18.5949 15.0272ZM16.0625 13.5668C14.8242 13.8573 13.8573 14.8242 13.5668 16.0625L15.0272 16.4051C15.1876 15.7214 15.7214 15.1876 16.4051 15.0272L16.0625 13.5668Z"/>
    </symbol>

    <symbol id="note" viewBox="0 0 24 24">
        <path d="M3.35288 14.8117L4.08229 14.6372L3.35288 14.8117ZM3.35288 8.83297L4.08229 9.00752L3.35288 8.83297ZM20.6471 8.83298L19.9177 9.00752L20.6471 8.83298ZM20.6471 14.8117L19.9177 14.6372L20.6471 14.8117ZM15.0496 20.2988L14.8815 19.5679L15.0496 20.2988ZM8.95044 20.2988L8.78237 21.0297L8.95044 20.2988ZM8.95043 3.34591L9.1185 4.07684L8.95043 3.34591ZM15.0496 3.34591L14.8815 4.07684L15.0496 3.34591ZM4.08229 14.6372C3.63924 12.7857 3.63924 10.859 4.08229 9.00752L2.62347 8.65843C2.12551 10.7394 2.12551 12.9053 2.62347 14.9863L4.08229 14.6372ZM19.9177 9.00752C20.3608 10.859 20.3608 12.7857 19.9177 14.6372L21.3765 14.9863C21.8745 12.9053 21.8745 10.7394 21.3765 8.65844L19.9177 9.00752ZM14.8815 19.5679C12.9863 20.0036 11.0137 20.0036 9.1185 19.5679L8.78237 21.0297C10.8988 21.5164 13.1012 21.5164 15.2176 21.0297L14.8815 19.5679ZM9.1185 4.07684C11.0137 3.64105 12.9863 3.64105 14.8815 4.07684L15.2176 2.61498C13.1012 2.12834 10.8988 2.12834 8.78237 2.61499L9.1185 4.07684ZM9.1185 19.5679C6.61229 18.9916 4.66599 17.0765 4.08229 14.6372L2.62347 14.9863C3.34276 17.9922 5.73374 20.3287 8.78237 21.0297L9.1185 19.5679ZM15.2176 21.0297C18.2663 20.3287 20.6572 17.9922 21.3765 14.9863L19.9177 14.6372C19.334 17.0765 17.3877 18.9916 14.8815 19.5679L15.2176 21.0297ZM14.8815 4.07684C17.3877 4.65311 19.334 6.56823 19.9177 9.00752L21.3765 8.65844C20.6572 5.65253 18.2663 3.31598 15.2176 2.61498L14.8815 4.07684ZM8.78237 2.61499C5.73373 3.31598 3.34276 5.65252 2.62347 8.65843L4.08229 9.00752C4.66599 6.56823 6.61228 4.65311 9.1185 4.07684L8.78237 2.61499ZM14.8305 21C14.8305 19.5363 14.8322 18.5154 14.9378 17.7451C15.0403 16.998 15.2278 16.5993 15.5196 16.3132L14.4696 15.242C13.8474 15.852 13.5778 16.6223 13.4518 17.5413C13.3289 18.4372 13.3305 19.5795 13.3305 21H14.8305ZM20.3222 14.1316C18.8718 14.1316 17.7101 14.13 16.7998 14.25C15.8695 14.3726 15.0897 14.6341 14.4696 15.242L15.5196 16.3132C15.8135 16.0251 16.2264 15.8385 16.9958 15.7371C17.7852 15.6331 18.8302 15.6316 20.3222 15.6316V14.1316Z"/>
        <path d="M9 8.25C8.58579 8.25 8.25 8.58579 8.25 9C8.25 9.41421 8.58579 9.75 9 9.75V8.25ZM12 9.75C12.4142 9.75 12.75 9.41421 12.75 9C12.75 8.58579 12.4142 8.25 12 8.25V9.75ZM9 11.25C8.58579 11.25 8.25 11.5858 8.25 12C8.25 12.4142 8.58579 12.75 9 12.75V11.25ZM14 12.75C14.4142 12.75 14.75 12.4142 14.75 12C14.75 11.5858 14.4142 11.25 14 11.25V12.75ZM9 9.75H12V8.25H9V9.75ZM9 12.75H14V11.25H9V12.75Z"/>
    </symbol>

    <symbol id="notification" viewBox="0 0 24 24">
        <path d="M6.0278 8.63259L6.7517 8.82873L6.7517 8.82873L6.0278 8.63259ZM10.1584 4.30223L9.92711 3.58877L10.1584 4.30223ZM5.98297 8.79804L5.25907 8.6019L5.25907 8.6019L5.98297 8.79804ZM5.78956 12.8674L6.5288 12.7409V12.7409L5.78956 12.8674ZM5.81207 12.9989L5.07282 13.1255L5.07282 13.1255L5.81207 12.9989ZM6.28759 17.4572L6.43731 16.7223L6.28759 17.4572ZM6.65518 17.5321L6.8049 16.7971H6.8049L6.65518 17.5321ZM17.3448 17.5321L17.1951 16.7971H17.1951L17.3448 17.5321ZM17.7124 17.4572L17.8621 18.1921L17.7124 17.4572ZM18.1922 12.9737L18.9315 13.1003V13.1003L18.1922 12.9737ZM18.2161 12.8343L17.4769 12.7077V12.7077L18.2161 12.8343ZM18.0417 8.82624L17.3163 9.01657V9.01658L18.0417 8.82624ZM17.9793 8.58835L18.7047 8.39802V8.39802L17.9793 8.58835ZM13.9671 4.30838L14.2023 3.59621V3.59621L13.9671 4.30838ZM18.353 13.3008L17.9868 13.9553L18.353 13.3008ZM5.66797 13.2892L5.3088 12.6308L5.66797 13.2892ZM12.75 3C12.75 2.58579 12.4142 2.25 12 2.25C11.5858 2.25 11.25 2.58579 11.25 3H12.75ZM11.25 4.00474C11.25 4.41895 11.5858 4.75474 12 4.75474C12.4142 4.75474 12.75 4.41895 12.75 4.00474H11.25ZM9.0091 17.9034L9.09289 17.1581L8.19556 17.0572L8.26108 17.9578L9.0091 17.9034ZM14.9909 17.9034L15.7389 17.9578L15.8044 17.0572L14.9071 17.1581L14.9909 17.9034ZM14.9001 18.4772L15.6285 18.6563L14.9001 18.4772ZM14.8182 18.8106L14.0899 18.6315L14.8182 18.8106ZM12.7039 20.917L12.8784 21.6464H12.8784L12.7039 20.917ZM11.2961 20.917L11.1216 21.6464H11.1216L11.2961 20.917ZM9.18182 18.8106L8.45352 18.9896L9.18182 18.8106ZM9.09985 18.4772L9.82816 18.2981H9.82816L9.09985 18.4772ZM6.7517 8.82873C7.23925 7.02931 8.62052 5.58915 10.3896 5.01568L9.92711 3.58877C7.67951 4.31734 5.92499 6.14416 5.3039 8.43645L6.7517 8.82873ZM6.70687 8.99418L6.7517 8.82873L5.3039 8.43645L5.25907 8.6019L6.70687 8.99418ZM6.5288 12.7409C6.3153 11.4939 6.37608 10.215 6.70687 8.99418L5.25907 8.6019C4.87128 10.0331 4.80004 11.5322 5.05032 12.994L6.5288 12.7409ZM6.55131 12.8723L6.5288 12.7409L5.05032 12.994L5.07282 13.1255L6.55131 12.8723ZM5.25 15.2604C5.25 14.6932 5.56385 14.2003 6.02714 13.9476L5.3088 12.6308C4.38074 13.137 3.75 14.1251 3.75 15.2604H5.25ZM6.43731 16.7223C5.74893 16.582 5.25 15.9725 5.25 15.2604H3.75C3.75 16.6807 4.74616 17.9085 6.13787 18.1921L6.43731 16.7223ZM6.8049 16.7971L6.43731 16.7223L6.13787 18.1921L6.50547 18.267L6.8049 16.7971ZM17.1951 16.7971C13.7666 17.4956 10.2334 17.4956 6.8049 16.7971L6.50547 18.267C10.1316 19.0057 13.8684 19.0057 17.4945 18.267L17.1951 16.7971ZM17.5627 16.7223L17.1951 16.7971L17.4945 18.267L17.8621 18.1921L17.5627 16.7223ZM18.75 15.2604C18.75 15.9725 18.2511 16.582 17.5627 16.7223L17.8621 18.1921C19.2538 17.9085 20.25 16.6807 20.25 15.2604H18.75ZM17.9868 13.9553C18.4425 14.2103 18.75 14.6989 18.75 15.2604H20.25C20.25 14.1365 19.6319 13.157 18.7192 12.6463L17.9868 13.9553ZM17.4769 12.7077L17.453 12.8471L18.9315 13.1003L18.9554 12.9608L17.4769 12.7077ZM17.3163 9.01658C17.6323 10.2211 17.6871 11.4799 17.4769 12.7077L18.9554 12.9608C19.2017 11.5223 19.1375 10.0474 18.7672 8.63591L17.3163 9.01658ZM17.2539 8.77868L17.3163 9.01657L18.7672 8.63591L18.7047 8.39802L17.2539 8.77868ZM13.7319 5.02054C15.4622 5.592 16.7887 7.00574 17.2539 8.77868L18.7047 8.39802C18.1113 6.13594 16.4174 4.32779 14.2023 3.59621L13.7319 5.02054ZM10.3896 5.01568C11.474 4.66418 12.6528 4.66417 13.7319 5.02054L14.2023 3.59621C12.8171 3.13872 11.3114 3.14004 9.92711 3.58877L10.3896 5.01568ZM18.7192 12.6463C18.8626 12.7265 18.966 12.8988 18.9315 13.1003L17.453 12.8471C17.3735 13.3114 17.6116 13.7453 17.9868 13.9553L18.7192 12.6463ZM5.07282 13.1255C5.03579 12.9092 5.14712 12.719 5.3088 12.6308L6.02714 13.9476C6.39669 13.746 6.62845 13.3228 6.55131 12.8723L5.07282 13.1255ZM11.25 3V4.00474H12.75V3H11.25ZM8.92531 18.6487C10.9687 18.8784 13.0313 18.8784 15.0747 18.6487L14.9071 17.1581C12.9751 17.3753 11.0249 17.3753 9.09289 17.1581L8.92531 18.6487ZM15.6285 18.6563C15.6849 18.4268 15.7218 18.1932 15.7389 17.9578L14.2429 17.849C14.2319 18.0003 14.2081 18.1506 14.1718 18.2981L15.6285 18.6563ZM15.5465 18.9896L15.6285 18.6563L14.1718 18.2981L14.0899 18.6315L15.5465 18.9896ZM12.8784 21.6464C14.1945 21.3315 15.223 20.3052 15.5465 18.9896L14.0899 18.6315C13.8997 19.4047 13.2965 20.004 12.5294 20.1875L12.8784 21.6464ZM11.1216 21.6464C11.6991 21.7845 12.3009 21.7845 12.8784 21.6464L12.5294 20.1875C12.1813 20.2708 11.8187 20.2708 11.4706 20.1875L11.1216 21.6464ZM8.45352 18.9896C8.77701 20.3052 9.80549 21.3315 11.1216 21.6464L11.4706 20.1875C10.7035 20.004 10.1003 19.4047 9.91013 18.6315L8.45352 18.9896ZM8.37155 18.6563L8.45352 18.9896L9.91013 18.6315L9.82816 18.2981L8.37155 18.6563ZM8.26108 17.9578C8.2782 18.1932 8.31512 18.4268 8.37155 18.6563L9.82816 18.2981C9.79188 18.1506 9.76814 18.0003 9.75712 17.849L8.26108 17.9578Z"/>
    </symbol>

    <symbol id="swap" viewBox="0 0 24 24" fill="none">
        <path d="M5 10.0909H19L13.1604 5" stroke-width="1.5" stroke-linecap="round"
              stroke-linejoin="round"/>
        <path d="M19 13.9091L5 13.9091L10.8396 19" stroke-width="1.5" stroke-linecap="round"
              stroke-linejoin="round"/>
    </symbol>

    <symbol id="two-user" viewBox="0 0 24 24">
        <path d="M6.61013 14.3814L6.49193 13.6408H6.49193L6.61013 14.3814ZM11.3899 14.3814L11.5081 13.6408H11.5081L11.3899 14.3814ZM11.568 14.4098L11.4498 15.1505H11.4498L11.568 14.4098ZM6.43204 14.4098L6.55024 15.1505H6.55024L6.43204 14.4098ZM6.55024 15.1505L6.72833 15.122L6.49193 13.6408L6.31383 13.6692L6.55024 15.1505ZM11.2717 15.122L11.4498 15.1505L11.6862 13.6692L11.5081 13.6408L11.2717 15.122ZM13.433 19.25H4.56697V20.75H13.433V19.25ZM6.72833 15.122C8.23325 14.8819 9.76675 14.8819 11.2717 15.122L11.5081 13.6408C9.84654 13.3756 8.15346 13.3756 6.49193 13.6408L6.72833 15.122ZM2.25 18.433C2.25 19.7127 3.28734 20.75 4.56697 20.75V19.25C4.11577 19.25 3.75 18.8842 3.75 18.433H2.25ZM14.25 18.433C14.25 18.8842 13.8842 19.25 13.433 19.25V20.75C14.7127 20.75 15.75 19.7127 15.75 18.433H14.25ZM15.75 18.433C15.75 16.0622 14.0273 14.0428 11.6862 13.6692L11.4498 15.1505C13.063 15.4079 14.25 16.7994 14.25 18.433H15.75ZM3.75 18.433C3.75 16.7994 4.93703 15.4079 6.55024 15.1505L6.31384 13.6692C3.97267 14.0428 2.25 16.0622 2.25 18.433H3.75ZM11.75 7.5C11.75 9.01878 10.5188 10.25 9 10.25V11.75C11.3472 11.75 13.25 9.84721 13.25 7.5H11.75ZM9 10.25C7.48122 10.25 6.25 9.01878 6.25 7.5H4.75C4.75 9.84721 6.65279 11.75 9 11.75V10.25ZM6.25 7.5C6.25 5.98122 7.48122 4.75 9 4.75V3.25C6.65279 3.25 4.75 5.15279 4.75 7.5H6.25ZM9 4.75C10.5188 4.75 11.75 5.98122 11.75 7.5H13.25C13.25 5.15279 11.3472 3.25 9 3.25V4.75Z"/>
        <path d="M15 10.25C14.5858 10.25 14.25 10.5858 14.25 11C14.25 11.4142 14.5858 11.75 15 11.75V10.25ZM15 3.25C14.5858 3.25 14.25 3.58579 14.25 4C14.25 4.41421 14.5858 4.75 15 4.75V3.25ZM17.3899 19.25C16.9757 19.25 16.6399 19.5858 16.6399 20C16.6399 20.4142 16.9757 20.75 17.3899 20.75V19.25ZM16.2412 13.6314C15.827 13.6314 15.4912 13.9672 15.4912 14.3814C15.4912 14.7956 15.827 15.1314 16.2412 15.1314V13.6314ZM20.25 18.433C20.25 18.8842 19.8842 19.25 19.433 19.25V20.75C20.7127 20.75 21.75 19.7127 21.75 18.433H20.25ZM21.75 18.433C21.75 16.0622 20.0273 14.0428 17.6862 13.6692L17.4498 15.1505C19.063 15.4079 20.25 16.7994 20.25 18.433H21.75ZM17.75 7.5C17.75 9.01878 16.5188 10.25 15 10.25V11.75C17.3472 11.75 19.25 9.84721 19.25 7.5H17.75ZM15 4.75C16.5188 4.75 17.75 5.98122 17.75 7.5H19.25C19.25 5.15279 17.3472 3.25 15 3.25V4.75ZM19.433 19.25H17.3899V20.75H19.433V19.25ZM16.2412 15.1314C16.2422 15.1314 16.2433 15.1314 16.2444 15.1314C16.2454 15.1314 16.2465 15.1314 16.2476 15.1314C16.2486 15.1314 16.2497 15.1314 16.2508 15.1314C16.2518 15.1314 16.2529 15.1314 16.254 15.1314C16.255 15.1314 16.2561 15.1314 16.2571 15.1314C16.2582 15.1314 16.2592 15.1314 16.2603 15.1314C16.2613 15.1314 16.2624 15.1314 16.2634 15.1314C16.2645 15.1314 16.2655 15.1314 16.2666 15.1314C16.2676 15.1314 16.2687 15.1314 16.2697 15.1314C16.2707 15.1314 16.2718 15.1314 16.2728 15.1314C16.2739 15.1314 16.2749 15.1314 16.2759 15.1314C16.277 15.1314 16.278 15.1314 16.279 15.1314C16.2801 15.1314 16.2811 15.1314 16.2821 15.1314C16.2832 15.1314 16.2842 15.1314 16.2852 15.1314C16.2862 15.1314 16.2873 15.1314 16.2883 15.1314C16.2893 15.1314 16.2903 15.1314 16.2913 15.1314C16.2924 15.1314 16.2934 15.1314 16.2944 15.1314C16.2954 15.1314 16.2964 15.1314 16.2974 15.1314C16.2984 15.1314 16.2995 15.1314 16.3005 15.1314C16.3015 15.1314 16.3025 15.1314 16.3035 15.1314C16.3045 15.1314 16.3055 15.1314 16.3065 15.1314C16.3075 15.1314 16.3085 15.1314 16.3095 15.1314C16.3105 15.1314 16.3115 15.1314 16.3125 15.1314C16.3135 15.1314 16.3145 15.1314 16.3155 15.1314C16.3165 15.1314 16.3175 15.1314 16.3185 15.1314C16.3194 15.1314 16.3204 15.1314 16.3214 15.1314C16.3224 15.1314 16.3234 15.1314 16.3244 15.1314C16.3254 15.1314 16.3263 15.1314 16.3273 15.1314C16.3283 15.1314 16.3293 15.1314 16.3303 15.1314C16.3312 15.1314 16.3322 15.1314 16.3332 15.1314C16.3342 15.1314 16.3351 15.1314 16.3361 15.1314C16.3371 15.1314 16.338 15.1314 16.339 15.1314C16.34 15.1314 16.3409 15.1314 16.3419 15.1314C16.3429 15.1314 16.3438 15.1314 16.3448 15.1314C16.3458 15.1314 16.3467 15.1314 16.3477 15.1314C16.3486 15.1314 16.3496 15.1314 16.3505 15.1314C16.3515 15.1314 16.3525 15.1314 16.3534 15.1314C16.3544 15.1314 16.3553 15.1314 16.3563 15.1314C16.3572 15.1314 16.3582 15.1314 16.3591 15.1314C16.3601 15.1314 16.361 15.1314 16.3619 15.1314C16.3629 15.1314 16.3638 15.1314 16.3648 15.1314C16.3657 15.1314 16.3666 15.1314 16.3676 15.1314C16.3685 15.1314 16.3695 15.1314 16.3704 15.1314C16.3713 15.1314 16.3723 15.1314 16.3732 15.1314C16.3741 15.1314 16.375 15.1314 16.376 15.1314C16.3769 15.1314 16.3778 15.1314 16.3788 15.1314C16.3797 15.1314 16.3806 15.1314 16.3815 15.1314C16.3824 15.1314 16.3834 15.1314 16.3843 15.1314C16.3852 15.1314 16.3861 15.1314 16.387 15.1314C16.388 15.1314 16.3889 15.1314 16.3898 15.1314C16.3907 15.1314 16.3916 15.1314 16.3925 15.1314C16.3934 15.1314 16.3943 15.1314 16.3952 15.1314C16.3962 15.1314 16.3971 15.1314 16.398 15.1314C16.3989 15.1314 16.3998 15.1314 16.4007 15.1314C16.4016 15.1314 16.4025 15.1314 16.4034 15.1314C16.4043 15.1314 16.4052 15.1314 16.4061 15.1314C16.407 15.1314 16.4079 15.1314 16.4087 15.1314C16.4096 15.1314 16.4105 15.1314 16.4114 15.1314C16.4123 15.1314 16.4132 15.1314 16.4141 15.1314C16.415 15.1314 16.4159 15.1314 16.4167 15.1314C16.4176 15.1314 16.4185 15.1314 16.4194 15.1314C16.4203 15.1314 16.4212 15.1314 16.422 15.1314C16.4229 15.1314 16.4238 15.1314 16.4247 15.1314C16.4255 15.1314 16.4264 15.1314 16.4273 15.1314C16.4282 15.1314 16.429 15.1314 16.4299 15.1314C16.4308 15.1314 16.4316 15.1314 16.4325 15.1314C16.4334 15.1314 16.4342 15.1314 16.4351 15.1314C16.436 15.1314 16.4368 15.1314 16.4377 15.1314C16.4386 15.1314 16.4394 15.1314 16.4403 15.1314C16.4411 15.1314 16.442 15.1314 16.4429 15.1314C16.4437 15.1314 16.4446 15.1314 16.4454 15.1314C16.4463 15.1314 16.4471 15.1314 16.448 15.1314C16.4488 15.1314 16.4497 15.1314 16.4505 15.1314C16.4514 15.1314 16.4522 15.1314 16.4531 15.1314C16.4539 15.1314 16.4548 15.1314 16.4556 15.1314C16.4565 15.1314 16.4573 15.1314 16.4581 15.1314C16.459 15.1314 16.4598 15.1314 16.4607 15.1314C16.4615 15.1314 16.4623 15.1314 16.4632 15.1314C16.464 15.1314 16.4648 15.1314 16.4657 15.1314C16.4665 15.1314 16.4673 15.1314 16.4682 15.1314C16.469 15.1314 16.4698 15.1314 16.4706 15.1314C16.4715 15.1314 16.4723 15.1314 16.4731 15.1314C16.4739 15.1314 16.4748 15.1314 16.4756 15.1314C16.4764 15.1314 16.4772 15.1314 16.4781 15.1314C16.4789 15.1314 16.4797 15.1314 16.4805 15.1314C16.4813 15.1314 16.4821 15.1314 16.483 15.1314C16.4838 15.1314 16.4846 15.1314 16.4854 15.1314C16.4862 15.1314 16.487 15.1314 16.4878 15.1314C16.4886 15.1314 16.4894 15.1314 16.4902 15.1314C16.4911 15.1314 16.4919 15.1314 16.4927 15.1314C16.4935 15.1314 16.4943 15.1314 16.4951 15.1314C16.4959 15.1314 16.4967 15.1314 16.4975 15.1314C16.4983 15.1314 16.4991 15.1314 16.4999 15.1314C16.5007 15.1314 16.5015 15.1314 16.5022 15.1314C16.503 15.1314 16.5038 15.1314 16.5046 15.1314C16.5054 15.1314 16.5062 15.1314 16.507 15.1314C16.5078 15.1314 16.5086 15.1314 16.5094 15.1314C16.5101 15.1314 16.5109 15.1314 16.5117 15.1314C16.5125 15.1314 16.5133 15.1314 16.5141 15.1314C16.5148 15.1314 16.5156 15.1314 16.5164 15.1314C16.5172 15.1314 16.518 15.1314 16.5187 15.1314C16.5195 15.1314 16.5203 15.1314 16.5211 15.1314C16.5218 15.1314 16.5226 15.1314 16.5234 15.1314C16.5242 15.1314 16.5249 15.1314 16.5257 15.1314C16.5265 15.1314 16.5272 15.1314 16.528 15.1314C16.5288 15.1314 16.5295 15.1314 16.5303 15.1314C16.5311 15.1314 16.5318 15.1314 16.5326 15.1314C16.5334 15.1314 16.5341 15.1314 16.5349 15.1314C16.5356 15.1314 16.5364 15.1314 16.5372 15.1314C16.5379 15.1314 16.5387 15.1314 16.5394 15.1314C16.5402 15.1314 16.5409 15.1314 16.5417 15.1314C16.5424 15.1314 16.5432 15.1314 16.5439 15.1314C16.5447 15.1314 16.5454 15.1314 16.5462 15.1314C16.5469 15.1314 16.5477 15.1314 16.5484 15.1314C16.5492 15.1314 16.5499 15.1314 16.5507 15.1314C16.5514 15.1314 16.5522 15.1314 16.5529 15.1314C16.5536 15.1314 16.5544 15.1314 16.5551 15.1314C16.5559 15.1314 16.5566 15.1314 16.5573 15.1314C16.5581 15.1314 16.5588 15.1314 16.5595 15.1314C16.5603 15.1314 16.561 15.1314 16.5617 15.1314C16.5625 15.1314 16.5632 15.1314 16.5639 15.1314C16.5647 15.1314 16.5654 15.1314 16.5661 15.1314C16.5668 15.1314 16.5676 15.1314 16.5683 15.1314C16.569 15.1314 16.5698 15.1314 16.5705 15.1314C16.5712 15.1314 16.5719 15.1314 16.5726 15.1314C16.5734 15.1314 16.5741 15.1314 16.5748 15.1314C16.5755 15.1314 16.5762 15.1314 16.577 15.1314C16.5777 15.1314 16.5784 15.1314 16.5791 15.1314C16.5798 15.1314 16.5805 15.1314 16.5812 15.1314C16.582 15.1314 16.5827 15.1314 16.5834 15.1314C16.5841 15.1314 16.5848 15.1314 16.5855 15.1314C16.5862 15.1314 16.5869 15.1314 16.5876 15.1314C16.5883 15.1314 16.589 15.1314 16.5898 15.1314C16.5905 15.1314 16.5912 15.1314 16.5919 15.1314C16.5926 15.1314 16.5933 15.1314 16.594 15.1314C16.5947 15.1314 16.5954 15.1314 16.5961 15.1314C16.5968 15.1314 16.5975 15.1314 16.5982 15.1314C16.5989 15.1314 16.5995 15.1314 16.6002 15.1314C16.6009 15.1314 16.6016 15.1314 16.6023 15.1314C16.603 15.1314 16.6037 15.1314 16.6044 15.1314C16.6051 15.1314 16.6058 15.1314 16.6065 15.1314C16.6071 15.1314 16.6078 15.1314 16.6085 15.1314C16.6092 15.1314 16.6099 15.1314 16.6106 15.1314C16.6113 15.1314 16.6119 15.1314 16.6126 15.1314C16.6133 15.1314 16.614 15.1314 16.6147 15.1314C16.6153 15.1314 16.616 15.1314 16.6167 15.1314C16.6174 15.1314 16.6181 15.1314 16.6187 15.1314C16.6194 15.1314 16.6201 15.1314 16.6208 15.1314C16.6214 15.1314 16.6221 15.1314 16.6228 15.1314C16.6234 15.1314 16.6241 15.1314 16.6248 15.1314C16.6255 15.1314 16.6261 15.1314 16.6268 15.1314C16.6275 15.1314 16.6281 15.1314 16.6288 15.1314C16.6295 15.1314 16.6301 15.1314 16.6308 15.1314C16.6315 15.1314 16.6321 15.1314 16.6328 15.1314C16.6334 15.1314 16.6341 15.1314 16.6348 15.1314C16.6354 15.1314 16.6361 15.1314 16.6367 15.1314C16.6374 15.1314 16.6381 15.1314 16.6387 15.1314C16.6394 15.1314 16.64 15.1314 16.6407 15.1314C16.6413 15.1314 16.642 15.1314 16.6426 15.1314C16.6433 15.1314 16.644 15.1314 16.6446 15.1314C16.6453 15.1314 16.6459 15.1314 16.6466 15.1314C16.6472 15.1314 16.6479 15.1314 16.6485 15.1314C16.6491 15.1314 16.6498 15.1314 16.6504 15.1314C16.6511 15.1314 16.6517 15.1314 16.6524 15.1314C16.653 15.1314 16.6537 15.1314 16.6543 15.1314C16.6549 15.1314 16.6556 15.1314 16.6562 15.1314C16.6569 15.1314 16.6575 15.1314 16.6581 15.1314C16.6588 15.1314 16.6594 15.1314 16.6601 15.1314C16.6607 15.1314 16.6613 15.1314 16.662 15.1314C16.6626 15.1314 16.6632 15.1314 16.6639 15.1314C16.6645 15.1314 16.6651 15.1314 16.6658 15.1314C16.6664 15.1314 16.667 15.1314 16.6677 15.1314C16.6683 15.1314 16.6689 15.1314 16.6695 15.1314C16.6702 15.1314 16.6708 15.1314 16.6714 15.1314C16.6721 15.1314 16.6727 15.1314 16.6733 15.1314C16.6739 15.1314 16.6746 15.1314 16.6752 15.1314C16.6758 15.1314 16.6764 15.1314 16.677 15.1314C16.6777 15.1314 16.6783 15.1314 16.6789 15.1314C16.6795 15.1314 16.6801 15.1314 16.6808 15.1314C16.6814 15.1314 16.682 15.1314 16.6826 15.1314C16.6832 15.1314 16.6838 15.1314 16.6845 15.1314C16.6851 15.1314 16.6857 15.1314 16.6863 15.1314C16.6869 15.1314 16.6875 15.1314 16.6881 15.1314C16.6888 15.1314 16.6894 15.1314 16.69 15.1314C16.6906 15.1314 16.6912 15.1314 16.6918 15.1314C16.6924 15.1314 16.693 15.1314 16.6936 15.1314C16.6942 15.1314 16.6948 15.1314 16.6954 15.1314C16.696 15.1314 16.6967 15.1314 16.6973 15.1314C16.6979 15.1314 16.6985 15.1314 16.6991 15.1314C16.6997 15.1314 16.7003 15.1314 16.7009 15.1314C16.7015 15.1314 16.7021 15.1314 16.7027 15.1314C16.7033 15.1314 16.7039 15.1314 16.7045 15.1314C16.7051 15.1314 16.7057 15.1314 16.7063 15.1314C16.7069 15.1314 16.7074 15.1314 16.708 15.1314C16.7086 15.1314 16.7092 15.1314 16.7098 15.1314C16.7104 15.1314 16.711 15.1314 16.7116 15.1314C16.7122 15.1314 16.7128 15.1314 16.7134 15.1314C16.714 15.1314 16.7146 15.1314 16.7151 15.1314C16.7157 15.1314 16.7163 15.1314 16.7169 15.1314C16.7175 15.1314 16.7181 15.1314 16.7187 15.1314C16.7193 15.1314 16.7198 15.1314 16.7204 15.1314C16.721 15.1314 16.7216 15.1314 16.7222 15.1314C16.7228 15.1314 16.7233 15.1314 16.7239 15.1314C16.7245 15.1314 16.7251 15.1314 16.7257 15.1314C16.7262 15.1314 16.7268 15.1314 16.7274 15.1314C16.728 15.1314 16.7286 15.1314 16.7291 15.1314C16.7297 15.1314 16.7303 15.1314 16.7309 15.1314C16.7314 15.1314 16.732 15.1314 16.7326 15.1314C16.7332 15.1314 16.7337 15.1314 16.7343 15.1314C16.7349 15.1314 16.7355 15.1314 16.736 15.1314C16.7366 15.1314 16.7372 15.1314 16.7377 15.1314C16.7383 15.1314 16.7389 15.1314 16.7395 15.1314C16.74 15.1314 16.7406 15.1314 16.7412 15.1314C16.7417 15.1314 16.7423 15.1314 16.7429 15.1314C16.7434 15.1314 16.744 15.1314 16.7446 15.1314C16.7451 15.1314 16.7457 15.1314 16.7463 15.1314C16.7468 15.1314 16.7474 15.1314 16.7479 15.1314C16.7485 15.1314 16.7491 15.1314 16.7496 15.1314C16.7502 15.1314 16.7508 15.1314 16.7513 15.1314C16.7519 15.1314 16.7524 15.1314 16.753 15.1314C16.7536 15.1314 16.7541 15.1314 16.7547 15.1314C16.7552 15.1314 16.7558 15.1314 16.7563 15.1314C16.7569 15.1314 16.7575 15.1314 16.758 15.1314C16.7586 15.1314 16.7591 15.1314 16.7597 15.1314C16.7602 15.1314 16.7608 15.1314 16.7613 15.1314C16.7619 15.1314 16.7624 15.1314 16.763 15.1314C16.7635 15.1314 16.7641 15.1314 16.7647 15.1314C16.7652 15.1314 16.7658 15.1314 16.7663 15.1314C16.7669 15.1314 16.7674 15.1314 16.7679 15.1314C16.7685 15.1314 16.769 15.1314 16.7696 15.1314C16.7701 15.1314 16.7707 15.1314 16.7712 15.1314C16.7718 15.1314 16.7723 15.1314 16.7729 15.1314C16.7734 15.1314 16.774 15.1314 16.7745 15.1314C16.775 15.1314 16.7756 15.1314 16.7761 15.1314C16.7767 15.1314 16.7772 15.1314 16.7778 15.1314C16.7783 15.1314 16.7788 15.1314 16.7794 15.1314C16.7799 15.1314 16.7805 15.1314 16.781 15.1314C16.7815 15.1314 16.7821 15.1314 16.7826 15.1314C16.7832 15.1314 16.7837 15.1314 16.7842 15.1314C16.7848 15.1314 16.7853 15.1314 16.7858 15.1314C16.7864 15.1314 16.7869 15.1314 16.7875 15.1314C16.788 15.1314 16.7885 15.1314 16.7891 15.1314C16.7896 15.1314 16.7901 15.1314 16.7907 15.1314C16.7912 15.1314 16.7917 15.1314 16.7923 15.1314C16.7928 15.1314 16.7933 15.1314 16.7939 15.1314C16.7944 15.1314 16.7949 15.1314 16.7954 15.1314C16.796 15.1314 16.7965 15.1314 16.797 15.1314C16.7976 15.1314 16.7981 15.1314 16.7986 15.1314C16.7992 15.1314 16.7997 15.1314 16.8002 15.1314C16.8007 15.1314 16.8013 15.1314 16.8018 15.1314C16.8023 15.1314 16.8028 15.1314 16.8034 15.1314C16.8039 15.1314 16.8044 15.1314 16.8049 15.1314C16.8055 15.1314 16.806 15.1314 16.8065 15.1314C16.807 15.1314 16.8076 15.1314 16.8081 15.1314C16.8086 15.1314 16.8091 15.1314 16.8097 15.1314C16.8102 15.1314 16.8107 15.1314 16.8112 15.1314C16.8117 15.1314 16.8123 15.1314 16.8128 15.1314C16.8133 15.1314 16.8138 15.1314 16.8143 15.1314C16.8149 15.1314 16.8154 15.1314 16.8159 15.1314C16.8164 15.1314 16.8169 15.1314 16.8175 15.1314C16.818 15.1314 16.8185 15.1314 16.819 15.1314C16.8195 15.1314 16.82 15.1314 16.8206 15.1314C16.8211 15.1314 16.8216 15.1314 16.8221 15.1314C16.8226 15.1314 16.8231 15.1314 16.8236 15.1314C16.8242 15.1314 16.8247 15.1314 16.8252 15.1314C16.8257 15.1314 16.8262 15.1314 16.8267 15.1314C16.8272 15.1314 16.8278 15.1314 16.8283 15.1314C16.8288 15.1314 16.8293 15.1314 16.8298 15.1314C16.8303 15.1314 16.8308 15.1314 16.8313 15.1314C16.8318 15.1314 16.8324 15.1314 16.8329 15.1314C16.8334 15.1314 16.8339 15.1314 16.8344 15.1314C16.8349 15.1314 16.8354 15.1314 16.8359 15.1314C16.8364 15.1314 16.8369 15.1314 16.8374 15.1314C16.838 15.1314 16.8385 15.1314 16.839 15.1314C16.8395 15.1314 16.84 15.1314 16.8405 15.1314C16.841 15.1314 16.8415 15.1314 16.842 15.1314C16.8425 15.1314 16.843 15.1314 16.8435 15.1314C16.844 15.1314 16.8445 15.1314 16.845 15.1314C16.8455 15.1314 16.846 15.1314 16.8466 15.1314C16.8471 15.1314 16.8476 15.1314 16.8481 15.1314C16.8486 15.1314 16.8491 15.1314 16.8496 15.1314C16.8501 15.1314 16.8506 15.1314 16.8511 15.1314C16.8516 15.1314 16.8521 15.1314 16.8526 15.1314C16.8531 15.1314 16.8536 15.1314 16.8541 15.1314C16.8546 15.1314 16.8551 15.1314 16.8556 15.1314C16.8561 15.1314 16.8566 15.1314 16.8571 15.1314C16.8576 15.1314 16.8581 15.1314 16.8586 15.1314C16.8591 15.1314 16.8596 15.1314 16.8601 15.1314C16.8606 15.1314 16.8611 15.1314 16.8616 15.1314C16.8621 15.1314 16.8626 15.1314 16.8631 15.1314C16.8636 15.1314 16.8641 15.1314 16.8646 15.1314C16.8651 15.1314 16.8655 15.1314 16.866 15.1314C16.8665 15.1314 16.867 15.1314 16.8675 15.1314C16.868 15.1314 16.8685 15.1314 16.869 15.1314C16.8695 15.1314 16.87 15.1314 16.8705 15.1314C16.871 15.1314 16.8715 15.1314 16.872 15.1314C16.8725 15.1314 16.873 15.1314 16.8735 15.1314C16.874 15.1314 16.8745 15.1314 16.8749 15.1314C16.8754 15.1314 16.8759 15.1314 16.8764 15.1314C16.8769 15.1314 16.8774 15.1314 16.8779 15.1314C16.8784 15.1314 16.8789 15.1314 16.8794 15.1314C16.8799 15.1314 16.8804 15.1314 16.8809 15.1314C16.8814 15.1314 16.8818 15.1314 16.8823 15.1314C16.8828 15.1314 16.8833 15.1314 16.8838 15.1314C16.8843 15.1314 16.8848 15.1314 16.8853 15.1314C16.8858 15.1314 16.8863 15.1314 16.8867 15.1314C16.8872 15.1314 16.8877 15.1314 16.8882 15.1314C16.8887 15.1314 16.8892 15.1314 16.8897 15.1314C16.8902 15.1314 16.8907 15.1314 16.8912 15.1314C16.8916 15.1314 16.8921 15.1314 16.8926 15.1314C16.8931 15.1314 16.8936 15.1314 16.8941 15.1314C16.8946 15.1314 16.8951 15.1314 16.8955 15.1314C16.896 15.1314 16.8965 15.1314 16.897 15.1314C16.8975 15.1314 16.898 15.1314 16.8985 15.1314C16.899 15.1314 16.8994 15.1314 16.8999 15.1314C16.9004 15.1314 16.9009 15.1314 16.9014 15.1314C16.9019 15.1314 16.9024 15.1314 16.9029 15.1314C16.9033 15.1314 16.9038 15.1314 16.9043 15.1314C16.9048 15.1314 16.9053 15.1314 16.9058 15.1314C16.9063 15.1314 16.9067 15.1314 16.9072 15.1314C16.9077 15.1314 16.9082 15.1314 16.9087 15.1314C16.9092 15.1314 16.9097 15.1314 16.9101 15.1314C16.9106 15.1314 16.9111 15.1314 16.9116 15.1314C16.9121 15.1314 16.9126 15.1314 16.9131 15.1314C16.9135 15.1314 16.914 15.1314 16.9145 15.1314C16.915 15.1314 16.9155 15.1314 16.916 15.1314C16.9164 15.1314 16.9169 15.1314 16.9174 15.1314C16.9179 15.1314 16.9184 15.1314 16.9189 15.1314C16.9193 15.1314 16.9198 15.1314 16.9203 15.1314C16.9208 15.1314 16.9213 15.1314 16.9218 15.1314C16.9223 15.1314 16.9227 15.1314 16.9232 15.1314C16.9237 15.1314 16.9242 15.1314 16.9247 15.1314C16.9252 15.1314 16.9256 15.1314 16.9261 15.1314C16.9266 15.1314 16.9271 15.1314 16.9276 15.1314C16.9281 15.1314 16.9285 15.1314 16.929 15.1314C16.9295 15.1314 16.93 15.1314 16.9305 15.1314C16.931 15.1314 16.9314 15.1314 16.9319 15.1314C16.9324 15.1314 16.9329 15.1314 16.9334 15.1314C16.9339 15.1314 16.9343 15.1314 16.9348 15.1314C16.9353 15.1314 16.9358 15.1314 16.9363 15.1314C16.9368 15.1314 16.9372 15.1314 16.9377 15.1314C16.9382 15.1314 16.9387 15.1314 16.9392 15.1314C16.9396 15.1314 16.9401 15.1314 16.9406 15.1314C16.9411 15.1314 16.9416 15.1314 16.9421 15.1314C16.9425 15.1314 16.943 15.1314 16.9435 15.1314C16.944 15.1314 16.9445 15.1314 16.945 15.1314C16.9454 15.1314 16.9459 15.1314 16.9464 15.1314C16.9469 15.1314 16.9474 15.1314 16.9479 15.1314C16.9483 15.1314 16.9488 15.1314 16.9493 15.1314C16.9498 15.1314 16.9503 15.1314 16.9508 15.1314C16.9512 15.1314 16.9517 15.1314 16.9522 15.1314C16.9527 15.1314 16.9532 15.1314 16.9537 15.1314C16.9541 15.1314 16.9546 15.1314 16.9551 15.1314C16.9556 15.1314 16.9561 15.1314 16.9566 15.1314C16.957 15.1314 16.9575 15.1314 16.958 15.1314C16.9585 15.1314 16.959 15.1314 16.9595 15.1314C16.9599 15.1314 16.9604 15.1314 16.9609 15.1314C16.9614 15.1314 16.9619 15.1314 16.9624 15.1314C16.9628 15.1314 16.9633 15.1314 16.9638 15.1314C16.9643 15.1314 16.9648 15.1314 16.9653 15.1314C16.9657 15.1314 16.9662 15.1314 16.9667 15.1314C16.9672 15.1314 16.9677 15.1314 16.9682 15.1314C16.9687 15.1314 16.9691 15.1314 16.9696 15.1314C16.9701 15.1314 16.9706 15.1314 16.9711 15.1314C16.9716 15.1314 16.9721 15.1314 16.9725 15.1314C16.973 15.1314 16.9735 15.1314 16.974 15.1314C16.9745 15.1314 16.975 15.1314 16.9754 15.1314C16.9759 15.1314 16.9764 15.1314 16.9769 15.1314C16.9774 15.1314 16.9779 15.1314 16.9784 15.1314C16.9788 15.1314 16.9793 15.1314 16.9798 15.1314C16.9803 15.1314 16.9808 15.1314 16.9813 15.1314C16.9818 15.1314 16.9823 15.1314 16.9827 15.1314C16.9832 15.1314 16.9837 15.1314 16.9842 15.1314C16.9847 15.1314 16.9852 15.1314 16.9857 15.1314C16.9862 15.1314 16.9866 15.1314 16.9871 15.1314C16.9876 15.1314 16.9881 15.1314 16.9886 15.1314C16.9891 15.1314 16.9896 15.1314 16.9901 15.1314C16.9905 15.1314 16.991 15.1314 16.9915 15.1314C16.992 15.1314 16.9925 15.1314 16.993 15.1314C16.9935 15.1314 16.994 15.1314 16.9945 15.1314C16.9949 15.1314 16.9954 15.1314 16.9959 15.1314C16.9964 15.1314 16.9969 15.1314 16.9974 15.1314C16.9979 15.1314 16.9984 15.1314 16.9989 15.1314C16.9994 15.1314 16.9999 15.1314 17.0003 15.1314C17.0008 15.1314 17.0013 15.1314 17.0018 15.1314C17.0023 15.1314 17.0028 15.1314 17.0033 15.1314C17.0038 15.1314 17.0043 15.1314 17.0048 15.1314C17.0053 15.1314 17.0058 15.1314 17.0062 15.1314C17.0067 15.1314 17.0072 15.1314 17.0077 15.1314C17.0082 15.1314 17.0087 15.1314 17.0092 15.1314C17.0097 15.1314 17.0102 15.1314 17.0107 15.1314C17.0112 15.1314 17.0117 15.1314 17.0122 15.1314C17.0127 15.1314 17.0132 15.1314 17.0137 15.1314C17.0141 15.1314 17.0146 15.1314 17.0151 15.1314C17.0156 15.1314 17.0161 15.1314 17.0166 15.1314C17.0171 15.1314 17.0176 15.1314 17.0181 15.1314C17.0186 15.1314 17.0191 15.1314 17.0196 15.1314C17.0201 15.1314 17.0206 15.1314 17.0211 15.1314C17.0216 15.1314 17.0221 15.1314 17.0226 15.1314C17.0231 15.1314 17.0236 15.1314 17.0241 15.1314C17.0246 15.1314 17.0251 15.1314 17.0256 15.1314C17.0261 15.1314 17.0266 15.1314 17.0271 15.1314C17.0276 15.1314 17.0281 15.1314 17.0286 15.1314C17.0291 15.1314 17.0296 15.1314 17.0301 15.1314C17.0306 15.1314 17.0311 15.1314 17.0316 15.1314C17.0321 15.1314 17.0326 15.1314 17.0331 15.1314C17.0336 15.1314 17.0341 15.1314 17.0346 15.1314C17.0351 15.1314 17.0356 15.1314 17.0361 15.1314C17.0366 15.1314 17.0371 15.1314 17.0376 15.1314C17.0381 15.1314 17.0386 15.1314 17.0391 15.1314C17.0396 15.1314 17.0402 15.1314 17.0407 15.1314C17.0412 15.1314 17.0417 15.1314 17.0422 15.1314C17.0427 15.1314 17.0432 15.1314 17.0437 15.1314C17.0442 15.1314 17.0447 15.1314 17.0452 15.1314C17.0457 15.1314 17.0462 15.1314 17.0467 15.1314C17.0472 15.1314 17.0478 15.1314 17.0483 15.1314C17.0488 15.1314 17.0493 15.1314 17.0498 15.1314C17.0503 15.1314 17.0508 15.1314 17.0513 15.1314C17.0518 15.1314 17.0523 15.1314 17.0529 15.1314C17.0534 15.1314 17.0539 15.1314 17.0544 15.1314C17.0549 15.1314 17.0554 15.1314 17.0559 15.1314C17.0564 15.1314 17.057 15.1314 17.0575 15.1314C17.058 15.1314 17.0585 15.1314 17.059 15.1314C17.0595 15.1314 17.06 15.1314 17.0606 15.1314C17.0611 15.1314 17.0616 15.1314 17.0621 15.1314C17.0626 15.1314 17.0631 15.1314 17.0637 15.1314C17.0642 15.1314 17.0647 15.1314 17.0652 15.1314C17.0657 15.1314 17.0662 15.1314 17.0668 15.1314C17.0673 15.1314 17.0678 15.1314 17.0683 15.1314C17.0688 15.1314 17.0694 15.1314 17.0699 15.1314C17.0704 15.1314 17.0709 15.1314 17.0714 15.1314C17.072 15.1314 17.0725 15.1314 17.073 15.1314C17.0735 15.1314 17.074 15.1314 17.0746 15.1314C17.0751 15.1314 17.0756 15.1314 17.0761 15.1314C17.0767 15.1314 17.0772 15.1314 17.0777 15.1314C17.0782 15.1314 17.0788 15.1314 17.0793 15.1314C17.0798 15.1314 17.0803 15.1314 17.0809 15.1314C17.0814 15.1314 17.0819 15.1314 17.0824 15.1314C17.083 15.1314 17.0835 15.1314 17.084 15.1314C17.0846 15.1314 17.0851 15.1314 17.0856 15.1314C17.0861 15.1314 17.0867 15.1314 17.0872 15.1314C17.0877 15.1314 17.0883 15.1314 17.0888 15.1314C17.0893 15.1314 17.0899 15.1314 17.0904 15.1314C17.0909 15.1314 17.0915 15.1314 17.092 15.1314C17.0925 15.1314 17.0931 15.1314 17.0936 15.1314C17.0941 15.1314 17.0947 15.1314 17.0952 15.1314C17.0957 15.1314 17.0963 15.1314 17.0968 15.1314C17.0973 15.1314 17.0979 15.1314 17.0984 15.1314C17.099 15.1314 17.0995 15.1314 17.1 15.1314C17.1006 15.1314 17.1011 15.1314 17.1016 15.1314C17.1022 15.1314 17.1027 15.1314 17.1033 15.1314C17.1038 15.1314 17.1043 15.1314 17.1049 15.1314C17.1054 15.1314 17.106 15.1314 17.1065 15.1314C17.1071 15.1314 17.1076 15.1314 17.1081 15.1314C17.1087 15.1314 17.1092 15.1314 17.1098 15.1314C17.1103 15.1314 17.1109 15.1314 17.1114 15.1314C17.112 15.1314 17.1125 15.1314 17.1131 15.1314C17.1136 15.1314 17.1141 15.1314 17.1147 15.1314C17.1152 15.1314 17.1158 15.1314 17.1163 15.1314C17.1169 15.1314 17.1174 15.1314 17.118 15.1314C17.1185 15.1314 17.1191 15.1314 17.1196 15.1314C17.1202 15.1314 17.1207 15.1314 17.1213 15.1314C17.1219 15.1314 17.1224 15.1314 17.123 15.1314C17.1235 15.1314 17.1241 15.1314 17.1246 15.1314C17.1252 15.1314 17.1257 15.1314 17.1263 15.1314C17.1269 15.1314 17.1274 15.1314 17.128 15.1314C17.1285 15.1314 17.1291 15.1314 17.1296 15.1314C17.1302 15.1314 17.1308 15.1314 17.1313 15.1314C17.1319 15.1314 17.1324 15.1314 17.133 15.1314C17.1336 15.1314 17.1341 15.1314 17.1347 15.1314C17.1353 15.1314 17.1358 15.1314 17.1364 15.1314C17.1369 15.1314 17.1375 15.1314 17.1381 15.1314C17.1386 15.1314 17.1392 15.1314 17.1398 15.1314C17.1403 15.1314 17.1409 15.1314 17.1415 15.1314C17.142 15.1314 17.1426 15.1314 17.1432 15.1314C17.1437 15.1314 17.1443 15.1314 17.1449 15.1314C17.1455 15.1314 17.146 15.1314 17.1466 15.1314C17.1472 15.1314 17.1477 15.1314 17.1483 15.1314C17.1489 15.1314 17.1495 15.1314 17.15 15.1314C17.1506 15.1314 17.1512 15.1314 17.1518 15.1314C17.1523 15.1314 17.1529 15.1314 17.1535 15.1314C17.1541 15.1314 17.1546 15.1314 17.1552 15.1314C17.1558 15.1314 17.1564 15.1314 17.157 15.1314C17.1575 15.1314 17.1581 15.1314 17.1587 15.1314C17.1593 15.1314 17.1599 15.1314 17.1605 15.1314C17.161 15.1314 17.1616 15.1314 17.1622 15.1314C17.1628 15.1314 17.1634 15.1314 17.164 15.1314C17.1645 15.1314 17.1651 15.1314 17.1657 15.1314C17.1663 15.1314 17.1669 15.1314 17.1675 15.1314C17.1681 15.1314 17.1687 15.1314 17.1692 15.1314C17.1698 15.1314 17.1704 15.1314 17.171 15.1314C17.1716 15.1314 17.1722 15.1314 17.1728 15.1314C17.1734 15.1314 17.174 15.1314 17.1746 15.1314C17.1752 15.1314 17.1758 15.1314 17.1764 15.1314C17.177 15.1314 17.1776 15.1314 17.1782 15.1314C17.1788 15.1314 17.1793 15.1314 17.1799 15.1314C17.1805 15.1314 17.1811 15.1314 17.1817 15.1314C17.1823 15.1314 17.1829 15.1314 17.1836 15.1314C17.1842 15.1314 17.1848 15.1314 17.1854 15.1314C17.186 15.1314 17.1866 15.1314 17.1872 15.1314C17.1878 15.1314 17.1884 15.1314 17.189 15.1314C17.1896 15.1314 17.1902 15.1314 17.1908 15.1314C17.1914 15.1314 17.192 15.1314 17.1926 15.1314C17.1932 15.1314 17.1939 15.1314 17.1945 15.1314C17.1951 15.1314 17.1957 15.1314 17.1963 15.1314C17.1969 15.1314 17.1975 15.1314 17.1981 15.1314C17.1988 15.1314 17.1994 15.1314 17.2 15.1314C17.2006 15.1314 17.2012 15.1314 17.2018 15.1314C17.2025 15.1314 17.2031 15.1314 17.2037 15.1314C17.2043 15.1314 17.2049 15.1314 17.2056 15.1314C17.2062 15.1314 17.2068 15.1314 17.2074 15.1314C17.2081 15.1314 17.2087 15.1314 17.2093 15.1314V13.6314C17.2087 13.6314 17.2081 13.6314 17.2074 13.6314C17.2068 13.6314 17.2062 13.6314 17.2056 13.6314C17.2049 13.6314 17.2043 13.6314 17.2037 13.6314C17.2031 13.6314 17.2025 13.6314 17.2018 13.6314C17.2012 13.6314 17.2006 13.6314 17.2 13.6314C17.1994 13.6314 17.1988 13.6314 17.1981 13.6314C17.1975 13.6314 17.1969 13.6314 17.1963 13.6314C17.1957 13.6314 17.1951 13.6314 17.1945 13.6314C17.1939 13.6314 17.1932 13.6314 17.1926 13.6314C17.192 13.6314 17.1914 13.6314 17.1908 13.6314C17.1902 13.6314 17.1896 13.6314 17.189 13.6314C17.1884 13.6314 17.1878 13.6314 17.1872 13.6314C17.1866 13.6314 17.186 13.6314 17.1854 13.6314C17.1848 13.6314 17.1842 13.6314 17.1836 13.6314C17.1829 13.6314 17.1823 13.6314 17.1817 13.6314C17.1811 13.6314 17.1805 13.6314 17.1799 13.6314C17.1793 13.6314 17.1788 13.6314 17.1782 13.6314C17.1776 13.6314 17.177 13.6314 17.1764 13.6314C17.1758 13.6314 17.1752 13.6314 17.1746 13.6314C17.174 13.6314 17.1734 13.6314 17.1728 13.6314C17.1722 13.6314 17.1716 13.6314 17.171 13.6314C17.1704 13.6314 17.1698 13.6314 17.1692 13.6314C17.1687 13.6314 17.1681 13.6314 17.1675 13.6314C17.1669 13.6314 17.1663 13.6314 17.1657 13.6314C17.1651 13.6314 17.1645 13.6314 17.164 13.6314C17.1634 13.6314 17.1628 13.6314 17.1622 13.6314C17.1616 13.6314 17.161 13.6314 17.1605 13.6314C17.1599 13.6314 17.1593 13.6314 17.1587 13.6314C17.1581 13.6314 17.1575 13.6314 17.157 13.6314C17.1564 13.6314 17.1558 13.6314 17.1552 13.6314C17.1546 13.6314 17.1541 13.6314 17.1535 13.6314C17.1529 13.6314 17.1523 13.6314 17.1518 13.6314C17.1512 13.6314 17.1506 13.6314 17.15 13.6314C17.1495 13.6314 17.1489 13.6314 17.1483 13.6314C17.1477 13.6314 17.1472 13.6314 17.1466 13.6314C17.146 13.6314 17.1455 13.6314 17.1449 13.6314C17.1443 13.6314 17.1437 13.6314 17.1432 13.6314C17.1426 13.6314 17.142 13.6314 17.1415 13.6314C17.1409 13.6314 17.1403 13.6314 17.1398 13.6314C17.1392 13.6314 17.1386 13.6314 17.1381 13.6314C17.1375 13.6314 17.1369 13.6314 17.1364 13.6314C17.1358 13.6314 17.1353 13.6314 17.1347 13.6314C17.1341 13.6314 17.1336 13.6314 17.133 13.6314C17.1324 13.6314 17.1319 13.6314 17.1313 13.6314C17.1308 13.6314 17.1302 13.6314 17.1296 13.6314C17.1291 13.6314 17.1285 13.6314 17.128 13.6314C17.1274 13.6314 17.1269 13.6314 17.1263 13.6314C17.1257 13.6314 17.1252 13.6314 17.1246 13.6314C17.1241 13.6314 17.1235 13.6314 17.123 13.6314C17.1224 13.6314 17.1219 13.6314 17.1213 13.6314C17.1207 13.6314 17.1202 13.6314 17.1196 13.6314C17.1191 13.6314 17.1185 13.6314 17.118 13.6314C17.1174 13.6314 17.1169 13.6314 17.1163 13.6314C17.1158 13.6314 17.1152 13.6314 17.1147 13.6314C17.1141 13.6314 17.1136 13.6314 17.1131 13.6314C17.1125 13.6314 17.112 13.6314 17.1114 13.6314C17.1109 13.6314 17.1103 13.6314 17.1098 13.6314C17.1092 13.6314 17.1087 13.6314 17.1081 13.6314C17.1076 13.6314 17.1071 13.6314 17.1065 13.6314C17.106 13.6314 17.1054 13.6314 17.1049 13.6314C17.1043 13.6314 17.1038 13.6314 17.1033 13.6314C17.1027 13.6314 17.1022 13.6314 17.1016 13.6314C17.1011 13.6314 17.1006 13.6314 17.1 13.6314C17.0995 13.6314 17.099 13.6314 17.0984 13.6314C17.0979 13.6314 17.0973 13.6314 17.0968 13.6314C17.0963 13.6314 17.0957 13.6314 17.0952 13.6314C17.0947 13.6314 17.0941 13.6314 17.0936 13.6314C17.0931 13.6314 17.0925 13.6314 17.092 13.6314C17.0915 13.6314 17.0909 13.6314 17.0904 13.6314C17.0899 13.6314 17.0893 13.6314 17.0888 13.6314C17.0883 13.6314 17.0877 13.6314 17.0872 13.6314C17.0867 13.6314 17.0861 13.6314 17.0856 13.6314C17.0851 13.6314 17.0846 13.6314 17.084 13.6314C17.0835 13.6314 17.083 13.6314 17.0824 13.6314C17.0819 13.6314 17.0814 13.6314 17.0809 13.6314C17.0803 13.6314 17.0798 13.6314 17.0793 13.6314C17.0788 13.6314 17.0782 13.6314 17.0777 13.6314C17.0772 13.6314 17.0767 13.6314 17.0761 13.6314C17.0756 13.6314 17.0751 13.6314 17.0746 13.6314C17.074 13.6314 17.0735 13.6314 17.073 13.6314C17.0725 13.6314 17.072 13.6314 17.0714 13.6314C17.0709 13.6314 17.0704 13.6314 17.0699 13.6314C17.0694 13.6314 17.0688 13.6314 17.0683 13.6314C17.0678 13.6314 17.0673 13.6314 17.0668 13.6314C17.0662 13.6314 17.0657 13.6314 17.0652 13.6314C17.0647 13.6314 17.0642 13.6314 17.0637 13.6314C17.0631 13.6314 17.0626 13.6314 17.0621 13.6314C17.0616 13.6314 17.0611 13.6314 17.0606 13.6314C17.06 13.6314 17.0595 13.6314 17.059 13.6314C17.0585 13.6314 17.058 13.6314 17.0575 13.6314C17.057 13.6314 17.0564 13.6314 17.0559 13.6314C17.0554 13.6314 17.0549 13.6314 17.0544 13.6314C17.0539 13.6314 17.0534 13.6314 17.0529 13.6314C17.0523 13.6314 17.0518 13.6314 17.0513 13.6314C17.0508 13.6314 17.0503 13.6314 17.0498 13.6314C17.0493 13.6314 17.0488 13.6314 17.0483 13.6314C17.0478 13.6314 17.0472 13.6314 17.0467 13.6314C17.0462 13.6314 17.0457 13.6314 17.0452 13.6314C17.0447 13.6314 17.0442 13.6314 17.0437 13.6314C17.0432 13.6314 17.0427 13.6314 17.0422 13.6314C17.0417 13.6314 17.0412 13.6314 17.0407 13.6314C17.0402 13.6314 17.0396 13.6314 17.0391 13.6314C17.0386 13.6314 17.0381 13.6314 17.0376 13.6314C17.0371 13.6314 17.0366 13.6314 17.0361 13.6314C17.0356 13.6314 17.0351 13.6314 17.0346 13.6314C17.0341 13.6314 17.0336 13.6314 17.0331 13.6314C17.0326 13.6314 17.0321 13.6314 17.0316 13.6314C17.0311 13.6314 17.0306 13.6314 17.0301 13.6314C17.0296 13.6314 17.0291 13.6314 17.0286 13.6314C17.0281 13.6314 17.0276 13.6314 17.0271 13.6314C17.0266 13.6314 17.0261 13.6314 17.0256 13.6314C17.0251 13.6314 17.0246 13.6314 17.0241 13.6314C17.0236 13.6314 17.0231 13.6314 17.0226 13.6314C17.0221 13.6314 17.0216 13.6314 17.0211 13.6314C17.0206 13.6314 17.0201 13.6314 17.0196 13.6314C17.0191 13.6314 17.0186 13.6314 17.0181 13.6314C17.0176 13.6314 17.0171 13.6314 17.0166 13.6314C17.0161 13.6314 17.0156 13.6314 17.0151 13.6314C17.0146 13.6314 17.0141 13.6314 17.0137 13.6314C17.0132 13.6314 17.0127 13.6314 17.0122 13.6314C17.0117 13.6314 17.0112 13.6314 17.0107 13.6314C17.0102 13.6314 17.0097 13.6314 17.0092 13.6314C17.0087 13.6314 17.0082 13.6314 17.0077 13.6314C17.0072 13.6314 17.0067 13.6314 17.0062 13.6314C17.0058 13.6314 17.0053 13.6314 17.0048 13.6314C17.0043 13.6314 17.0038 13.6314 17.0033 13.6314C17.0028 13.6314 17.0023 13.6314 17.0018 13.6314C17.0013 13.6314 17.0008 13.6314 17.0003 13.6314C16.9999 13.6314 16.9994 13.6314 16.9989 13.6314C16.9984 13.6314 16.9979 13.6314 16.9974 13.6314C16.9969 13.6314 16.9964 13.6314 16.9959 13.6314C16.9954 13.6314 16.9949 13.6314 16.9945 13.6314C16.994 13.6314 16.9935 13.6314 16.993 13.6314C16.9925 13.6314 16.992 13.6314 16.9915 13.6314C16.991 13.6314 16.9905 13.6314 16.9901 13.6314C16.9896 13.6314 16.9891 13.6314 16.9886 13.6314C16.9881 13.6314 16.9876 13.6314 16.9871 13.6314C16.9866 13.6314 16.9862 13.6314 16.9857 13.6314C16.9852 13.6314 16.9847 13.6314 16.9842 13.6314C16.9837 13.6314 16.9832 13.6314 16.9827 13.6314C16.9823 13.6314 16.9818 13.6314 16.9813 13.6314C16.9808 13.6314 16.9803 13.6314 16.9798 13.6314C16.9793 13.6314 16.9788 13.6314 16.9784 13.6314C16.9779 13.6314 16.9774 13.6314 16.9769 13.6314C16.9764 13.6314 16.9759 13.6314 16.9754 13.6314C16.975 13.6314 16.9745 13.6314 16.974 13.6314C16.9735 13.6314 16.973 13.6314 16.9725 13.6314C16.9721 13.6314 16.9716 13.6314 16.9711 13.6314C16.9706 13.6314 16.9701 13.6314 16.9696 13.6314C16.9691 13.6314 16.9687 13.6314 16.9682 13.6314C16.9677 13.6314 16.9672 13.6314 16.9667 13.6314C16.9662 13.6314 16.9657 13.6314 16.9653 13.6314C16.9648 13.6314 16.9643 13.6314 16.9638 13.6314C16.9633 13.6314 16.9628 13.6314 16.9624 13.6314C16.9619 13.6314 16.9614 13.6314 16.9609 13.6314C16.9604 13.6314 16.9599 13.6314 16.9595 13.6314C16.959 13.6314 16.9585 13.6314 16.958 13.6314C16.9575 13.6314 16.957 13.6314 16.9566 13.6314C16.9561 13.6314 16.9556 13.6314 16.9551 13.6314C16.9546 13.6314 16.9541 13.6314 16.9537 13.6314C16.9532 13.6314 16.9527 13.6314 16.9522 13.6314C16.9517 13.6314 16.9512 13.6314 16.9508 13.6314C16.9503 13.6314 16.9498 13.6314 16.9493 13.6314C16.9488 13.6314 16.9483 13.6314 16.9479 13.6314C16.9474 13.6314 16.9469 13.6314 16.9464 13.6314C16.9459 13.6314 16.9454 13.6314 16.945 13.6314C16.9445 13.6314 16.944 13.6314 16.9435 13.6314C16.943 13.6314 16.9425 13.6314 16.9421 13.6314C16.9416 13.6314 16.9411 13.6314 16.9406 13.6314C16.9401 13.6314 16.9396 13.6314 16.9392 13.6314C16.9387 13.6314 16.9382 13.6314 16.9377 13.6314C16.9372 13.6314 16.9368 13.6314 16.9363 13.6314C16.9358 13.6314 16.9353 13.6314 16.9348 13.6314C16.9343 13.6314 16.9339 13.6314 16.9334 13.6314C16.9329 13.6314 16.9324 13.6314 16.9319 13.6314C16.9314 13.6314 16.931 13.6314 16.9305 13.6314C16.93 13.6314 16.9295 13.6314 16.929 13.6314C16.9285 13.6314 16.9281 13.6314 16.9276 13.6314C16.9271 13.6314 16.9266 13.6314 16.9261 13.6314C16.9256 13.6314 16.9252 13.6314 16.9247 13.6314C16.9242 13.6314 16.9237 13.6314 16.9232 13.6314C16.9227 13.6314 16.9223 13.6314 16.9218 13.6314C16.9213 13.6314 16.9208 13.6314 16.9203 13.6314C16.9198 13.6314 16.9193 13.6314 16.9189 13.6314C16.9184 13.6314 16.9179 13.6314 16.9174 13.6314C16.9169 13.6314 16.9164 13.6314 16.916 13.6314C16.9155 13.6314 16.915 13.6314 16.9145 13.6314C16.914 13.6314 16.9135 13.6314 16.9131 13.6314C16.9126 13.6314 16.9121 13.6314 16.9116 13.6314C16.9111 13.6314 16.9106 13.6314 16.9101 13.6314C16.9097 13.6314 16.9092 13.6314 16.9087 13.6314C16.9082 13.6314 16.9077 13.6314 16.9072 13.6314C16.9067 13.6314 16.9063 13.6314 16.9058 13.6314C16.9053 13.6314 16.9048 13.6314 16.9043 13.6314C16.9038 13.6314 16.9033 13.6314 16.9029 13.6314C16.9024 13.6314 16.9019 13.6314 16.9014 13.6314C16.9009 13.6314 16.9004 13.6314 16.8999 13.6314C16.8994 13.6314 16.899 13.6314 16.8985 13.6314C16.898 13.6314 16.8975 13.6314 16.897 13.6314C16.8965 13.6314 16.896 13.6314 16.8955 13.6314C16.8951 13.6314 16.8946 13.6314 16.8941 13.6314C16.8936 13.6314 16.8931 13.6314 16.8926 13.6314C16.8921 13.6314 16.8916 13.6314 16.8912 13.6314C16.8907 13.6314 16.8902 13.6314 16.8897 13.6314C16.8892 13.6314 16.8887 13.6314 16.8882 13.6314C16.8877 13.6314 16.8872 13.6314 16.8867 13.6314C16.8863 13.6314 16.8858 13.6314 16.8853 13.6314C16.8848 13.6314 16.8843 13.6314 16.8838 13.6314C16.8833 13.6314 16.8828 13.6314 16.8823 13.6314C16.8818 13.6314 16.8814 13.6314 16.8809 13.6314C16.8804 13.6314 16.8799 13.6314 16.8794 13.6314C16.8789 13.6314 16.8784 13.6314 16.8779 13.6314C16.8774 13.6314 16.8769 13.6314 16.8764 13.6314C16.8759 13.6314 16.8754 13.6314 16.8749 13.6314C16.8745 13.6314 16.874 13.6314 16.8735 13.6314C16.873 13.6314 16.8725 13.6314 16.872 13.6314C16.8715 13.6314 16.871 13.6314 16.8705 13.6314C16.87 13.6314 16.8695 13.6314 16.869 13.6314C16.8685 13.6314 16.868 13.6314 16.8675 13.6314C16.867 13.6314 16.8665 13.6314 16.866 13.6314C16.8655 13.6314 16.8651 13.6314 16.8646 13.6314C16.8641 13.6314 16.8636 13.6314 16.8631 13.6314C16.8626 13.6314 16.8621 13.6314 16.8616 13.6314C16.8611 13.6314 16.8606 13.6314 16.8601 13.6314C16.8596 13.6314 16.8591 13.6314 16.8586 13.6314C16.8581 13.6314 16.8576 13.6314 16.8571 13.6314C16.8566 13.6314 16.8561 13.6314 16.8556 13.6314C16.8551 13.6314 16.8546 13.6314 16.8541 13.6314C16.8536 13.6314 16.8531 13.6314 16.8526 13.6314C16.8521 13.6314 16.8516 13.6314 16.8511 13.6314C16.8506 13.6314 16.8501 13.6314 16.8496 13.6314C16.8491 13.6314 16.8486 13.6314 16.8481 13.6314C16.8476 13.6314 16.8471 13.6314 16.8466 13.6314C16.846 13.6314 16.8455 13.6314 16.845 13.6314C16.8445 13.6314 16.844 13.6314 16.8435 13.6314C16.843 13.6314 16.8425 13.6314 16.842 13.6314C16.8415 13.6314 16.841 13.6314 16.8405 13.6314C16.84 13.6314 16.8395 13.6314 16.839 13.6314C16.8385 13.6314 16.838 13.6314 16.8374 13.6314C16.8369 13.6314 16.8364 13.6314 16.8359 13.6314C16.8354 13.6314 16.8349 13.6314 16.8344 13.6314C16.8339 13.6314 16.8334 13.6314 16.8329 13.6314C16.8324 13.6314 16.8318 13.6314 16.8313 13.6314C16.8308 13.6314 16.8303 13.6314 16.8298 13.6314C16.8293 13.6314 16.8288 13.6314 16.8283 13.6314C16.8278 13.6314 16.8272 13.6314 16.8267 13.6314C16.8262 13.6314 16.8257 13.6314 16.8252 13.6314C16.8247 13.6314 16.8242 13.6314 16.8236 13.6314C16.8231 13.6314 16.8226 13.6314 16.8221 13.6314C16.8216 13.6314 16.8211 13.6314 16.8206 13.6314C16.82 13.6314 16.8195 13.6314 16.819 13.6314C16.8185 13.6314 16.818 13.6314 16.8175 13.6314C16.8169 13.6314 16.8164 13.6314 16.8159 13.6314C16.8154 13.6314 16.8149 13.6314 16.8143 13.6314C16.8138 13.6314 16.8133 13.6314 16.8128 13.6314C16.8123 13.6314 16.8117 13.6314 16.8112 13.6314C16.8107 13.6314 16.8102 13.6314 16.8097 13.6314C16.8091 13.6314 16.8086 13.6314 16.8081 13.6314C16.8076 13.6314 16.807 13.6314 16.8065 13.6314C16.806 13.6314 16.8055 13.6314 16.8049 13.6314C16.8044 13.6314 16.8039 13.6314 16.8034 13.6314C16.8028 13.6314 16.8023 13.6314 16.8018 13.6314C16.8013 13.6314 16.8007 13.6314 16.8002 13.6314C16.7997 13.6314 16.7992 13.6314 16.7986 13.6314C16.7981 13.6314 16.7976 13.6314 16.797 13.6314C16.7965 13.6314 16.796 13.6314 16.7954 13.6314C16.7949 13.6314 16.7944 13.6314 16.7939 13.6314C16.7933 13.6314 16.7928 13.6314 16.7923 13.6314C16.7917 13.6314 16.7912 13.6314 16.7907 13.6314C16.7901 13.6314 16.7896 13.6314 16.7891 13.6314C16.7885 13.6314 16.788 13.6314 16.7875 13.6314C16.7869 13.6314 16.7864 13.6314 16.7858 13.6314C16.7853 13.6314 16.7848 13.6314 16.7842 13.6314C16.7837 13.6314 16.7832 13.6314 16.7826 13.6314C16.7821 13.6314 16.7815 13.6314 16.781 13.6314C16.7805 13.6314 16.7799 13.6314 16.7794 13.6314C16.7788 13.6314 16.7783 13.6314 16.7778 13.6314C16.7772 13.6314 16.7767 13.6314 16.7761 13.6314C16.7756 13.6314 16.775 13.6314 16.7745 13.6314C16.774 13.6314 16.7734 13.6314 16.7729 13.6314C16.7723 13.6314 16.7718 13.6314 16.7712 13.6314C16.7707 13.6314 16.7701 13.6314 16.7696 13.6314C16.769 13.6314 16.7685 13.6314 16.7679 13.6314C16.7674 13.6314 16.7669 13.6314 16.7663 13.6314C16.7658 13.6314 16.7652 13.6314 16.7647 13.6314C16.7641 13.6314 16.7635 13.6314 16.763 13.6314C16.7624 13.6314 16.7619 13.6314 16.7613 13.6314C16.7608 13.6314 16.7602 13.6314 16.7597 13.6314C16.7591 13.6314 16.7586 13.6314 16.758 13.6314C16.7575 13.6314 16.7569 13.6314 16.7563 13.6314C16.7558 13.6314 16.7552 13.6314 16.7547 13.6314C16.7541 13.6314 16.7536 13.6314 16.753 13.6314C16.7524 13.6314 16.7519 13.6314 16.7513 13.6314C16.7508 13.6314 16.7502 13.6314 16.7496 13.6314C16.7491 13.6314 16.7485 13.6314 16.7479 13.6314C16.7474 13.6314 16.7468 13.6314 16.7463 13.6314C16.7457 13.6314 16.7451 13.6314 16.7446 13.6314C16.744 13.6314 16.7434 13.6314 16.7429 13.6314C16.7423 13.6314 16.7417 13.6314 16.7412 13.6314C16.7406 13.6314 16.74 13.6314 16.7395 13.6314C16.7389 13.6314 16.7383 13.6314 16.7377 13.6314C16.7372 13.6314 16.7366 13.6314 16.736 13.6314C16.7355 13.6314 16.7349 13.6314 16.7343 13.6314C16.7337 13.6314 16.7332 13.6314 16.7326 13.6314C16.732 13.6314 16.7314 13.6314 16.7309 13.6314C16.7303 13.6314 16.7297 13.6314 16.7291 13.6314C16.7286 13.6314 16.728 13.6314 16.7274 13.6314C16.7268 13.6314 16.7262 13.6314 16.7257 13.6314C16.7251 13.6314 16.7245 13.6314 16.7239 13.6314C16.7233 13.6314 16.7228 13.6314 16.7222 13.6314C16.7216 13.6314 16.721 13.6314 16.7204 13.6314C16.7198 13.6314 16.7193 13.6314 16.7187 13.6314C16.7181 13.6314 16.7175 13.6314 16.7169 13.6314C16.7163 13.6314 16.7157 13.6314 16.7151 13.6314C16.7146 13.6314 16.714 13.6314 16.7134 13.6314C16.7128 13.6314 16.7122 13.6314 16.7116 13.6314C16.711 13.6314 16.7104 13.6314 16.7098 13.6314C16.7092 13.6314 16.7086 13.6314 16.708 13.6314C16.7074 13.6314 16.7069 13.6314 16.7063 13.6314C16.7057 13.6314 16.7051 13.6314 16.7045 13.6314C16.7039 13.6314 16.7033 13.6314 16.7027 13.6314C16.7021 13.6314 16.7015 13.6314 16.7009 13.6314C16.7003 13.6314 16.6997 13.6314 16.6991 13.6314C16.6985 13.6314 16.6979 13.6314 16.6973 13.6314C16.6967 13.6314 16.696 13.6314 16.6954 13.6314C16.6948 13.6314 16.6942 13.6314 16.6936 13.6314C16.693 13.6314 16.6924 13.6314 16.6918 13.6314C16.6912 13.6314 16.6906 13.6314 16.69 13.6314C16.6894 13.6314 16.6888 13.6314 16.6881 13.6314C16.6875 13.6314 16.6869 13.6314 16.6863 13.6314C16.6857 13.6314 16.6851 13.6314 16.6845 13.6314C16.6838 13.6314 16.6832 13.6314 16.6826 13.6314C16.682 13.6314 16.6814 13.6314 16.6808 13.6314C16.6801 13.6314 16.6795 13.6314 16.6789 13.6314C16.6783 13.6314 16.6777 13.6314 16.677 13.6314C16.6764 13.6314 16.6758 13.6314 16.6752 13.6314C16.6746 13.6314 16.6739 13.6314 16.6733 13.6314C16.6727 13.6314 16.6721 13.6314 16.6714 13.6314C16.6708 13.6314 16.6702 13.6314 16.6695 13.6314C16.6689 13.6314 16.6683 13.6314 16.6677 13.6314C16.667 13.6314 16.6664 13.6314 16.6658 13.6314C16.6651 13.6314 16.6645 13.6314 16.6639 13.6314C16.6632 13.6314 16.6626 13.6314 16.662 13.6314C16.6613 13.6314 16.6607 13.6314 16.6601 13.6314C16.6594 13.6314 16.6588 13.6314 16.6581 13.6314C16.6575 13.6314 16.6569 13.6314 16.6562 13.6314C16.6556 13.6314 16.6549 13.6314 16.6543 13.6314C16.6537 13.6314 16.653 13.6314 16.6524 13.6314C16.6517 13.6314 16.6511 13.6314 16.6504 13.6314C16.6498 13.6314 16.6491 13.6314 16.6485 13.6314C16.6479 13.6314 16.6472 13.6314 16.6466 13.6314C16.6459 13.6314 16.6453 13.6314 16.6446 13.6314C16.644 13.6314 16.6433 13.6314 16.6426 13.6314C16.642 13.6314 16.6413 13.6314 16.6407 13.6314C16.64 13.6314 16.6394 13.6314 16.6387 13.6314C16.6381 13.6314 16.6374 13.6314 16.6367 13.6314C16.6361 13.6314 16.6354 13.6314 16.6348 13.6314C16.6341 13.6314 16.6334 13.6314 16.6328 13.6314C16.6321 13.6314 16.6315 13.6314 16.6308 13.6314C16.6301 13.6314 16.6295 13.6314 16.6288 13.6314C16.6281 13.6314 16.6275 13.6314 16.6268 13.6314C16.6261 13.6314 16.6255 13.6314 16.6248 13.6314C16.6241 13.6314 16.6234 13.6314 16.6228 13.6314C16.6221 13.6314 16.6214 13.6314 16.6208 13.6314C16.6201 13.6314 16.6194 13.6314 16.6187 13.6314C16.6181 13.6314 16.6174 13.6314 16.6167 13.6314C16.616 13.6314 16.6153 13.6314 16.6147 13.6314C16.614 13.6314 16.6133 13.6314 16.6126 13.6314C16.6119 13.6314 16.6113 13.6314 16.6106 13.6314C16.6099 13.6314 16.6092 13.6314 16.6085 13.6314C16.6078 13.6314 16.6071 13.6314 16.6065 13.6314C16.6058 13.6314 16.6051 13.6314 16.6044 13.6314C16.6037 13.6314 16.603 13.6314 16.6023 13.6314C16.6016 13.6314 16.6009 13.6314 16.6002 13.6314C16.5995 13.6314 16.5989 13.6314 16.5982 13.6314C16.5975 13.6314 16.5968 13.6314 16.5961 13.6314C16.5954 13.6314 16.5947 13.6314 16.594 13.6314C16.5933 13.6314 16.5926 13.6314 16.5919 13.6314C16.5912 13.6314 16.5905 13.6314 16.5898 13.6314C16.589 13.6314 16.5883 13.6314 16.5876 13.6314C16.5869 13.6314 16.5862 13.6314 16.5855 13.6314C16.5848 13.6314 16.5841 13.6314 16.5834 13.6314C16.5827 13.6314 16.582 13.6314 16.5812 13.6314C16.5805 13.6314 16.5798 13.6314 16.5791 13.6314C16.5784 13.6314 16.5777 13.6314 16.577 13.6314C16.5762 13.6314 16.5755 13.6314 16.5748 13.6314C16.5741 13.6314 16.5734 13.6314 16.5726 13.6314C16.5719 13.6314 16.5712 13.6314 16.5705 13.6314C16.5698 13.6314 16.569 13.6314 16.5683 13.6314C16.5676 13.6314 16.5668 13.6314 16.5661 13.6314C16.5654 13.6314 16.5647 13.6314 16.5639 13.6314C16.5632 13.6314 16.5625 13.6314 16.5617 13.6314C16.561 13.6314 16.5603 13.6314 16.5595 13.6314C16.5588 13.6314 16.5581 13.6314 16.5573 13.6314C16.5566 13.6314 16.5559 13.6314 16.5551 13.6314C16.5544 13.6314 16.5536 13.6314 16.5529 13.6314C16.5522 13.6314 16.5514 13.6314 16.5507 13.6314C16.5499 13.6314 16.5492 13.6314 16.5484 13.6314C16.5477 13.6314 16.5469 13.6314 16.5462 13.6314C16.5454 13.6314 16.5447 13.6314 16.5439 13.6314C16.5432 13.6314 16.5424 13.6314 16.5417 13.6314C16.5409 13.6314 16.5402 13.6314 16.5394 13.6314C16.5387 13.6314 16.5379 13.6314 16.5372 13.6314C16.5364 13.6314 16.5356 13.6314 16.5349 13.6314C16.5341 13.6314 16.5334 13.6314 16.5326 13.6314C16.5318 13.6314 16.5311 13.6314 16.5303 13.6314C16.5295 13.6314 16.5288 13.6314 16.528 13.6314C16.5272 13.6314 16.5265 13.6314 16.5257 13.6314C16.5249 13.6314 16.5242 13.6314 16.5234 13.6314C16.5226 13.6314 16.5218 13.6314 16.5211 13.6314C16.5203 13.6314 16.5195 13.6314 16.5187 13.6314C16.518 13.6314 16.5172 13.6314 16.5164 13.6314C16.5156 13.6314 16.5148 13.6314 16.5141 13.6314C16.5133 13.6314 16.5125 13.6314 16.5117 13.6314C16.5109 13.6314 16.5101 13.6314 16.5094 13.6314C16.5086 13.6314 16.5078 13.6314 16.507 13.6314C16.5062 13.6314 16.5054 13.6314 16.5046 13.6314C16.5038 13.6314 16.503 13.6314 16.5022 13.6314C16.5015 13.6314 16.5007 13.6314 16.4999 13.6314C16.4991 13.6314 16.4983 13.6314 16.4975 13.6314C16.4967 13.6314 16.4959 13.6314 16.4951 13.6314C16.4943 13.6314 16.4935 13.6314 16.4927 13.6314C16.4919 13.6314 16.4911 13.6314 16.4902 13.6314C16.4894 13.6314 16.4886 13.6314 16.4878 13.6314C16.487 13.6314 16.4862 13.6314 16.4854 13.6314C16.4846 13.6314 16.4838 13.6314 16.483 13.6314C16.4821 13.6314 16.4813 13.6314 16.4805 13.6314C16.4797 13.6314 16.4789 13.6314 16.4781 13.6314C16.4772 13.6314 16.4764 13.6314 16.4756 13.6314C16.4748 13.6314 16.4739 13.6314 16.4731 13.6314C16.4723 13.6314 16.4715 13.6314 16.4706 13.6314C16.4698 13.6314 16.469 13.6314 16.4682 13.6314C16.4673 13.6314 16.4665 13.6314 16.4657 13.6314C16.4648 13.6314 16.464 13.6314 16.4632 13.6314C16.4623 13.6314 16.4615 13.6314 16.4607 13.6314C16.4598 13.6314 16.459 13.6314 16.4581 13.6314C16.4573 13.6314 16.4565 13.6314 16.4556 13.6314C16.4548 13.6314 16.4539 13.6314 16.4531 13.6314C16.4522 13.6314 16.4514 13.6314 16.4505 13.6314C16.4497 13.6314 16.4488 13.6314 16.448 13.6314C16.4471 13.6314 16.4463 13.6314 16.4454 13.6314C16.4446 13.6314 16.4437 13.6314 16.4429 13.6314C16.442 13.6314 16.4411 13.6314 16.4403 13.6314C16.4394 13.6314 16.4386 13.6314 16.4377 13.6314C16.4368 13.6314 16.436 13.6314 16.4351 13.6314C16.4342 13.6314 16.4334 13.6314 16.4325 13.6314C16.4316 13.6314 16.4308 13.6314 16.4299 13.6314C16.429 13.6314 16.4282 13.6314 16.4273 13.6314C16.4264 13.6314 16.4255 13.6314 16.4247 13.6314C16.4238 13.6314 16.4229 13.6314 16.422 13.6314C16.4212 13.6314 16.4203 13.6314 16.4194 13.6314C16.4185 13.6314 16.4176 13.6314 16.4167 13.6314C16.4159 13.6314 16.415 13.6314 16.4141 13.6314C16.4132 13.6314 16.4123 13.6314 16.4114 13.6314C16.4105 13.6314 16.4096 13.6314 16.4087 13.6314C16.4079 13.6314 16.407 13.6314 16.4061 13.6314C16.4052 13.6314 16.4043 13.6314 16.4034 13.6314C16.4025 13.6314 16.4016 13.6314 16.4007 13.6314C16.3998 13.6314 16.3989 13.6314 16.398 13.6314C16.3971 13.6314 16.3962 13.6314 16.3952 13.6314C16.3943 13.6314 16.3934 13.6314 16.3925 13.6314C16.3916 13.6314 16.3907 13.6314 16.3898 13.6314C16.3889 13.6314 16.388 13.6314 16.387 13.6314C16.3861 13.6314 16.3852 13.6314 16.3843 13.6314C16.3834 13.6314 16.3824 13.6314 16.3815 13.6314C16.3806 13.6314 16.3797 13.6314 16.3788 13.6314C16.3778 13.6314 16.3769 13.6314 16.376 13.6314C16.375 13.6314 16.3741 13.6314 16.3732 13.6314C16.3723 13.6314 16.3713 13.6314 16.3704 13.6314C16.3695 13.6314 16.3685 13.6314 16.3676 13.6314C16.3666 13.6314 16.3657 13.6314 16.3648 13.6314C16.3638 13.6314 16.3629 13.6314 16.3619 13.6314C16.361 13.6314 16.3601 13.6314 16.3591 13.6314C16.3582 13.6314 16.3572 13.6314 16.3563 13.6314C16.3553 13.6314 16.3544 13.6314 16.3534 13.6314C16.3525 13.6314 16.3515 13.6314 16.3505 13.6314C16.3496 13.6314 16.3486 13.6314 16.3477 13.6314C16.3467 13.6314 16.3458 13.6314 16.3448 13.6314C16.3438 13.6314 16.3429 13.6314 16.3419 13.6314C16.3409 13.6314 16.34 13.6314 16.339 13.6314C16.338 13.6314 16.3371 13.6314 16.3361 13.6314C16.3351 13.6314 16.3342 13.6314 16.3332 13.6314C16.3322 13.6314 16.3312 13.6314 16.3303 13.6314C16.3293 13.6314 16.3283 13.6314 16.3273 13.6314C16.3263 13.6314 16.3254 13.6314 16.3244 13.6314C16.3234 13.6314 16.3224 13.6314 16.3214 13.6314C16.3204 13.6314 16.3194 13.6314 16.3185 13.6314C16.3175 13.6314 16.3165 13.6314 16.3155 13.6314C16.3145 13.6314 16.3135 13.6314 16.3125 13.6314C16.3115 13.6314 16.3105 13.6314 16.3095 13.6314C16.3085 13.6314 16.3075 13.6314 16.3065 13.6314C16.3055 13.6314 16.3045 13.6314 16.3035 13.6314C16.3025 13.6314 16.3015 13.6314 16.3005 13.6314C16.2995 13.6314 16.2984 13.6314 16.2974 13.6314C16.2964 13.6314 16.2954 13.6314 16.2944 13.6314C16.2934 13.6314 16.2924 13.6314 16.2913 13.6314C16.2903 13.6314 16.2893 13.6314 16.2883 13.6314C16.2873 13.6314 16.2862 13.6314 16.2852 13.6314C16.2842 13.6314 16.2832 13.6314 16.2821 13.6314C16.2811 13.6314 16.2801 13.6314 16.279 13.6314C16.278 13.6314 16.277 13.6314 16.2759 13.6314C16.2749 13.6314 16.2739 13.6314 16.2728 13.6314C16.2718 13.6314 16.2707 13.6314 16.2697 13.6314C16.2687 13.6314 16.2676 13.6314 16.2666 13.6314C16.2655 13.6314 16.2645 13.6314 16.2634 13.6314C16.2624 13.6314 16.2613 13.6314 16.2603 13.6314C16.2592 13.6314 16.2582 13.6314 16.2571 13.6314C16.2561 13.6314 16.255 13.6314 16.254 13.6314C16.2529 13.6314 16.2518 13.6314 16.2508 13.6314C16.2497 13.6314 16.2486 13.6314 16.2476 13.6314C16.2465 13.6314 16.2454 13.6314 16.2444 13.6314C16.2433 13.6314 16.2422 13.6314 16.2412 13.6314V15.1314ZM17.6862 13.6692C17.5285 13.644 17.3689 13.6314 17.2093 13.6314V15.1314C17.2898 15.1314 17.3704 15.1378 17.4498 15.1505L17.6862 13.6692Z"/>
    </symbol>

    <symbol id="user-scan" viewBox="0 0 24 24">
        <path d="M10.1717 13.7648L10.0525 13.0244L10.1717 13.7648ZM13.8283 13.7648L13.9475 13.0244L13.8283 13.7648ZM14.75 15.7409V15.9586H16.25V15.7409H14.75ZM9.25 15.9586V15.7409H7.75V15.9586H9.25ZM14.4673 16.25H9.53269V17.75H14.4673V16.25ZM10.2908 14.5053C11.4231 14.3231 12.5769 14.3231 13.7092 14.5053L13.9475 13.0244C12.6573 12.8167 11.3427 12.8167 10.0525 13.0244L10.2908 14.5053ZM7.75 15.9586C7.75 16.942 8.54223 17.75 9.53269 17.75V16.25C9.38247 16.25 9.25 16.1255 9.25 15.9586H7.75ZM14.75 15.9586C14.75 16.1255 14.6175 16.25 14.4673 16.25V17.75C15.4578 17.75 16.25 16.942 16.25 15.9586H14.75ZM16.25 15.7409C16.25 14.3938 15.2786 13.2386 13.9475 13.0244L13.7092 14.5053C14.3042 14.6011 14.75 15.1211 14.75 15.7409H16.25ZM9.25 15.7409C9.25 15.1211 9.69583 14.6011 10.2908 14.5053L10.0525 13.0244C8.72142 13.2386 7.75 14.3938 7.75 15.7409H9.25ZM13.2917 9.05882C13.2917 9.7876 12.7075 10.3676 12 10.3676V11.8676C13.5477 11.8676 14.7917 10.6042 14.7917 9.05882H13.2917ZM12 10.3676C11.2925 10.3676 10.7083 9.7876 10.7083 9.05882H9.20833C9.20833 10.6042 10.4523 11.8676 12 11.8676V10.3676ZM10.7083 9.05882C10.7083 8.33005 11.2925 7.75 12 7.75V6.25C10.4523 6.25 9.20833 7.51348 9.20833 9.05882H10.7083ZM12 7.75C12.7075 7.75 13.2917 8.33005 13.2917 9.05882H14.7917C14.7917 7.51348 13.5477 6.25 12 6.25V7.75Z"/>
        <path d="M20.25 7C20.25 7.41421 20.5858 7.75 21 7.75C21.4142 7.75 21.75 7.41421 21.75 7H20.25ZM16 2.25C15.5858 2.25 15.25 2.58579 15.25 3C15.25 3.41421 15.5858 3.75 16 3.75V2.25ZM3.75 16C3.75 15.5858 3.41421 15.25 3 15.25C2.58579 15.25 2.25 15.5858 2.25 16H3.75ZM7 21.75C7.41421 21.75 7.75 21.4142 7.75 21C7.75 20.5858 7.41421 20.25 7 20.25V21.75ZM7 3.75C7.41421 3.75 7.75 3.41421 7.75 3C7.75 2.58579 7.41421 2.25 7 2.25V3.75ZM2.25 7C2.25 7.41421 2.58579 7.75 3 7.75C3.41421 7.75 3.75 7.41421 3.75 7H2.25ZM16 20.25C15.5858 20.25 15.25 20.5858 15.25 21C15.25 21.4142 15.5858 21.75 16 21.75V20.25ZM21.75 16C21.75 15.5858 21.4142 15.25 21 15.25C20.5858 15.25 20.25 15.5858 20.25 16H21.75ZM21.75 7C21.75 4.22912 19.0108 2.25 16 2.25V3.75C18.512 3.75 20.25 5.3526 20.25 7H21.75ZM2.25 16C2.25 19.0108 4.22912 21.75 7 21.75V20.25C5.3526 20.25 3.75 18.512 3.75 16H2.25ZM7 2.25C4.37665 2.25 2.25 4.37665 2.25 7H3.75C3.75 5.20507 5.20507 3.75 7 3.75V2.25ZM16 21.75C19.1756 21.75 21.75 19.1756 21.75 16H20.25C20.25 18.3472 18.3472 20.25 16 20.25V21.75Z"/>
    </symbol>

    <symbol id="sidebar-shrink" viewBox="0 0 26 20">
        <path d="M11.9696 16.3637C12.2625 16.6566 12.7374 16.6566 13.0303 16.3637C13.3232 16.0708 13.3232 15.5959 13.0303 15.303L11.9696 16.3637ZM6.66663 10L6.1363 9.46969C5.8434 9.76258 5.8434 10.2375 6.1363 10.5304L6.66663 10ZM13.0303 4.69702C13.3232 4.40412 13.3232 3.92925 13.0303 3.63636C12.7374 3.34346 12.2625 3.34346 11.9696 3.63636L13.0303 4.69702ZM13.0303 15.303L7.19696 9.46969L6.1363 10.5304L11.9696 16.3637L13.0303 15.303ZM7.19696 10.5304L13.0303 4.69702L11.9696 3.63636L6.1363 9.46969L7.19696 10.5304Z"/>
        <path d="M17.9696 16.3637C18.2625 16.6566 18.7374 16.6566 19.0303 16.3637C19.3232 16.0708 19.3232 15.5959 19.0303 15.303L17.9696 16.3637ZM12.6666 10L12.1363 9.46969C11.8434 9.76258 11.8434 10.2375 12.1363 10.5304L12.6666 10ZM19.0303 4.69702C19.3232 4.40412 19.3232 3.92925 19.0303 3.63636C18.7374 3.34346 18.2625 3.34346 17.9696 3.63636L19.0303 4.69702ZM19.0303 15.303L13.197 9.46969L12.1363 10.5304L17.9696 16.3637L19.0303 15.303ZM13.197 10.5304L19.0303 4.69702L17.9696 3.63636L12.1363 9.46969L13.197 10.5304Z"/>
    </symbol>

    <symbol id="sun" viewBox="0 0 20 20" fill="none">
        <path d="M13 10C13 11.6569 11.6569 13 10 13C8.34315 13 7 11.6569 7 10C7 8.34315 8.34315 7 10 7C11.6569 7 13 8.34315 13 10Z"
              stroke="#0D062D" stroke-width="1.5"/>
        <path d="M14.3788 4.5606C14.0859 4.85349 14.0859 5.32837 14.3788 5.62126C14.6717 5.91415 15.1465 5.91416 15.4394 5.62126L14.3788 4.5606ZM15.5304 5.53033C15.8233 5.23744 15.8233 4.76257 15.5304 4.46967C15.2375 4.17678 14.7626 4.17678 14.4697 4.46967L15.5304 5.53033ZM4.46962 14.4698C4.17676 14.7627 4.17681 15.2376 4.46974 15.5304C4.76267 15.8233 5.23754 15.8232 5.5304 15.5303L4.46962 14.4698ZM5.62131 15.4394C5.91417 15.1465 5.91411 14.6716 5.62118 14.3787C5.32826 14.0859 4.85338 14.0859 4.56052 14.3789L5.62131 15.4394ZM9.25 3.05751C9.25 3.47172 9.58579 3.80751 10 3.80751C10.4142 3.80751 10.75 3.47172 10.75 3.05751H9.25ZM10.75 3C10.75 2.58579 10.4142 2.25 10 2.25C9.58579 2.25 9.25 2.58579 9.25 3H10.75ZM9.25 17C9.25 17.4142 9.58579 17.75 10 17.75C10.4142 17.75 10.75 17.4142 10.75 17H9.25ZM10.75 16.9425C10.75 16.5283 10.4142 16.1925 10 16.1925C9.58579 16.1925 9.25 16.5283 9.25 16.9425H10.75ZM3.05751 10.75C3.47172 10.75 3.80751 10.4142 3.80751 10C3.80751 9.58579 3.47172 9.25 3.05751 9.25V10.75ZM3 9.25C2.58579 9.25 2.25 9.58579 2.25 10C2.25 10.4142 2.58579 10.75 3 10.75V9.25ZM17 10.75C17.4142 10.75 17.75 10.4142 17.75 10C17.75 9.58579 17.4142 9.25 17 9.25V10.75ZM16.9425 9.25C16.5283 9.25 16.1925 9.58579 16.1925 10C16.1925 10.4142 16.5283 10.75 16.9425 10.75V9.25ZM4.56058 5.62126C4.85347 5.91415 5.32835 5.91415 5.62124 5.62126C5.91413 5.32837 5.91413 4.85349 5.62124 4.5606L4.56058 5.62126ZM5.53031 4.46967C5.23742 4.17678 4.76254 4.17678 4.46965 4.46967C4.17676 4.76256 4.17676 5.23744 4.46965 5.53033L5.53031 4.46967ZM14.4697 15.5304C14.7626 15.8232 15.2375 15.8232 15.5304 15.5303C15.8232 15.2374 15.8232 14.7625 15.5303 14.4696L14.4697 15.5304ZM15.4394 14.3787C15.1465 14.0859 14.6716 14.0859 14.3787 14.3788C14.0859 14.6718 14.0859 15.1466 14.3788 15.4395L15.4394 14.3787ZM15.4394 5.62126L15.5304 5.53033L14.4697 4.46967L14.3788 4.5606L15.4394 5.62126ZM5.5304 15.5303L5.62131 15.4394L4.56052 14.3789L4.46962 14.4698L5.5304 15.5303ZM10.75 3.05751V3H9.25V3.05751H10.75ZM10.75 17V16.9425H9.25V17H10.75ZM3.05751 9.25H3V10.75H3.05751V9.25ZM17 9.25H16.9425V10.75H17V9.25ZM5.62124 4.5606L5.53031 4.46967L4.46965 5.53033L4.56058 5.62126L5.62124 4.5606ZM15.5303 14.4696L15.4394 14.3787L14.3788 15.4395L14.4697 15.5304L15.5303 14.4696Z"
              fill="#0D062D"/>
    </symbol>

    <symbol id="moon" viewBox="0 0 20 20" fill="none">
        <path d="M8.01712 5L8.60292 5.46833C8.79499 5.22808 8.8209 4.89492 8.66828 4.62786C8.51566 4.36081 8.21546 4.21402 7.91097 4.25755L8.01712 5ZM15 13.4819L15.6969 13.7592C15.8101 13.4746 15.7389 13.1498 15.5171 12.9386C15.2952 12.7275 14.9672 12.6725 14.6886 12.7996L15 13.4819ZM8.96653 16.75C5.78895 16.75 3.25 14.2524 3.25 11.2164H1.75C1.75 15.1211 5.00138 18.25 8.96653 18.25V16.75ZM12.5591 13.2591C9.77829 13.2591 7.56102 11.0741 7.56102 8.42366H6.06102C6.06102 11.9428 8.99072 14.7591 12.5591 14.7591V13.2591ZM7.56102 8.42366C7.56102 7.31172 7.94817 6.28732 8.60292 5.46833L7.43131 4.53167C6.57413 5.60387 6.06102 6.95537 6.06102 8.42366H7.56102ZM3.25 11.2164C3.25 8.45403 5.34987 6.13896 8.12326 5.74245L7.91097 4.25755C4.44183 4.75353 1.75 7.66484 1.75 11.2164H3.25ZM14.6886 12.7996C14.0439 13.0939 13.3227 13.2591 12.5591 13.2591V14.7591C13.5409 14.7591 14.4743 14.5463 15.3114 14.1642L14.6886 12.7996ZM14.3031 13.2046C13.4812 15.27 11.4088 16.75 8.96653 16.75V18.25C12.023 18.25 14.6478 16.3955 15.6969 13.7592L14.3031 13.2046Z"
              fill="#0D062D"/>
    </symbol>

    <symbol id="document" viewBox="0 0 22 22" fill="none">
        <path d="M8.25 8.25H11.9167M8.25 13.75H11M8.25 11H13.75" stroke-width="1.5"
              stroke-linecap="round"/>
        <path d="M3.07347 8.20456C3.67068 5.65859 5.65859 3.67067 8.20456 3.07347C10.0432 2.64218 11.9568 2.64218 13.7954 3.07347C16.3414 3.67067 18.3293 5.65859 18.9265 8.20457C19.3578 10.0432 19.3578 11.9568 18.9265 13.7954C18.3293 16.3414 16.3414 18.3293 13.7954 18.9265C11.9568 19.3578 10.0432 19.3578 8.20457 18.9265C5.65859 18.3293 3.67068 16.3414 3.07347 13.7954C2.64218 11.9568 2.64218 10.0432 3.07347 8.20456Z"
              stroke-width="1.5"/>
    </symbol>

    <symbol id="more" viewBox="0 0 20 20" fill="none">
        <path d="M4.16667 8.33334C3.25 8.33334 2.5 9.08334 2.5 10C2.5 10.9167 3.25 11.6667 4.16667 11.6667C5.08333 11.6667 5.83333 10.9167 5.83333 10C5.83333 9.08334 5.08333 8.33334 4.16667 8.33334Z"/>
        <path d="M15.8333 8.33334C14.9166 8.33334 14.1666 9.08334 14.1666 10C14.1666 10.9167 14.9166 11.6667 15.8333 11.6667C16.75 11.6667 17.5 10.9167 17.5 10C17.5 9.08334 16.75 8.33334 15.8333 8.33334Z"/>
        <path d="M10 8.33334C9.08337 8.33334 8.33337 9.08334 8.33337 10C8.33337 10.9167 9.08337 11.6667 10 11.6667C10.9167 11.6667 11.6667 10.9167 11.6667 10C11.6667 9.08334 10.9167 8.33334 10 8.33334Z"/>
    </symbol>

    <symbol id="check" viewBox="0 0 24 24" fill="none">
        <path d="M4 12.0001L8.94975 16.9499L19.5563 6.34326" stroke="#5030E5" stroke-width="2" stroke-linecap="round"
              stroke-linejoin="round"/>
    </symbol>

    <symbol id="arrow" viewBox="0 0 20 20">
        <path d="M11.7932 16.5404C12.1837 16.931 12.8169 16.931 13.2074 16.5404C13.598 16.1499 13.598 15.5167 13.2074 15.1262L11.7932 16.5404ZM6.66699 10L5.95989 9.29289C5.56936 9.68342 5.56936 10.3166 5.95989 10.7071L6.66699 10ZM13.2074 4.87377C13.598 4.48325 13.598 3.85008 13.2074 3.45956C12.8169 3.06903 12.1837 3.06903 11.7932 3.45956L13.2074 4.87377ZM13.2074 15.1262L7.3741 9.29289L5.95989 10.7071L11.7932 16.5404L13.2074 15.1262ZM7.3741 10.7071L13.2074 4.87377L11.7932 3.45956L5.95989 9.29289L7.3741 10.7071Z"/>
    </symbol>

    <symbol id="calendar" viewBox="0 0 20 20">
        <path d="M3.61074 12.7071L4.34178 12.5395L3.61074 12.7071ZM3.61074 7.79436L4.34178 7.96191L3.61074 7.79436ZM17.2219 7.79436L16.4909 7.96192L17.2219 7.79436ZM17.2219 12.7071L16.4909 12.5395L17.2219 12.7071ZM12.8165 17.2158L12.9915 17.945L12.8165 17.2158ZM8.01622 17.2158L8.19129 16.4865L8.01622 17.2158ZM8.01622 3.28566L8.19129 4.01494L8.01622 3.28566ZM12.8165 3.28566L12.9915 2.55638L12.8165 3.28566ZM7.89141 2.5C7.89141 2.08579 7.55562 1.75 7.14141 1.75C6.72719 1.75 6.39141 2.08579 6.39141 2.5H7.89141ZM6.39141 4.59479C6.39141 5.009 6.72719 5.34479 7.14141 5.34479C7.55562 5.34479 7.89141 5.009 7.89141 4.59479H6.39141ZM14.4413 2.5C14.4413 2.08579 14.1055 1.75 13.6913 1.75C13.2771 1.75 12.9413 2.08579 12.9413 2.5H14.4413ZM12.9413 4.59479C12.9413 5.009 13.2771 5.34479 13.6913 5.34479C14.1055 5.34479 14.4413 5.009 14.4413 4.59479H12.9413ZM7.96014 12.0145C7.54593 12.0145 7.21014 12.3502 7.21014 12.7645C7.21014 13.1787 7.54593 13.5145 7.96014 13.5145V12.0145ZM10.4163 13.5145C10.8306 13.5145 11.1663 13.1787 11.1663 12.7645C11.1663 12.3502 10.8306 12.0145 10.4163 12.0145V13.5145ZM7.96014 9.50071C7.54593 9.50071 7.21014 9.8365 7.21014 10.2507C7.21014 10.6649 7.54593 11.0007 7.96014 11.0007V9.50071ZM12.8725 11.0007C13.2868 11.0007 13.6225 10.6649 13.6225 10.2507C13.6225 9.8365 13.2868 9.50071 12.8725 9.50071V11.0007ZM4.34178 12.5395C3.99675 11.0341 3.99675 9.46728 4.34178 7.96191L2.87969 7.6268C2.48411 9.35272 2.48411 11.1487 2.87969 12.8746L4.34178 12.5395ZM16.4909 7.96192C16.8359 9.46728 16.8359 11.0341 16.4909 12.5395L17.953 12.8746C18.3486 11.1487 18.3486 9.35272 17.953 7.62681L16.4909 7.96192ZM12.6414 16.4865C11.1778 16.8378 9.65487 16.8378 8.19129 16.4865L7.84115 17.945C9.53488 18.3517 11.2978 18.3517 12.9915 17.945L12.6414 16.4865ZM8.19129 4.01494C9.65487 3.66359 11.1778 3.66359 12.6414 4.01494L12.9915 2.55638C11.2978 2.14978 9.53488 2.14978 7.84115 2.55638L8.19129 4.01494ZM8.19129 16.4865C6.28962 16.03 4.7926 14.5065 4.34178 12.5395L2.87969 12.8746C3.45437 15.382 5.37095 17.352 7.84115 17.945L8.19129 16.4865ZM12.9915 17.945C15.4617 17.352 17.3783 15.382 17.953 12.8746L16.4909 12.5395C16.0401 14.5065 14.5431 16.03 12.6414 16.4865L12.9915 17.945ZM12.6414 4.01494C14.5431 4.47146 16.0401 5.99497 16.4909 7.96192L17.953 7.62681C17.3783 5.11945 15.4617 3.14939 12.9915 2.55638L12.6414 4.01494ZM7.84115 2.55638C5.37094 3.14939 3.45437 5.11945 2.87969 7.6268L4.34178 7.96191C4.7926 5.99497 6.28962 4.47146 8.19129 4.01494L7.84115 2.55638ZM6.39141 2.5V4.59479H7.89141V2.5H6.39141ZM12.9413 2.5V4.59479H14.4413V2.5H12.9413ZM7.96014 13.5145H10.4163V12.0145H7.96014V13.5145ZM7.96014 11.0007H12.8725V9.50071H7.96014V11.0007Z"
              fill="#BDBDBD"/>
    </symbol>


</svg>